<?xml version="1.0" encoding="UTF-8"?>
<svg xmlns="http://www.w3.org/2000/svg" xmlns:xlink="http://www.w3.org/1999/xlink" width="326.827087" height="244.474996" viewBox="0 0 326.827087 244.474996" version="1.1">
<defs>
<clipPath id="clip1">
  <path d="M 56.828125 9.601562 L 317.226562 9.601562 L 317.226562 112 L 56.828125 112 Z M 56.828125 9.601562 "/>
</clipPath>
<clipPath id="clip2">
  <path d="M 56.828125 109 L 317.226562 109 L 317.226562 136 L 56.828125 136 Z M 56.828125 109 "/>
</clipPath>
<clipPath id="clip3">
  <path d="M 56.828125 133 L 317.226562 133 L 317.226562 154 L 56.828125 154 Z M 56.828125 133 "/>
</clipPath>
<clipPath id="clip4">
  <path d="M 56.828125 151 L 317.226562 151 L 317.226562 170 L 56.828125 170 Z M 56.828125 151 "/>
</clipPath>
<clipPath id="clip5">
  <path d="M 56.828125 167 L 317.226562 167 L 317.226562 183 L 56.828125 183 Z M 56.828125 167 "/>
</clipPath>
<clipPath id="clip6">
  <path d="M 56.828125 180 L 282 180 L 282 194.398438 L 56.828125 194.398438 Z M 56.828125 180 "/>
</clipPath>
<clipPath id="clip7">
  <path d="M 279 193 L 317.226562 193 L 317.226562 194.398438 L 279 194.398438 Z M 279 193 "/>
</clipPath>
<clipPath id="clip8">
  <path d="M 56.828125 193 L 59 193 L 59 194.398438 L 56.828125 194.398438 Z M 56.828125 193 "/>
</clipPath>
</defs>
<g id="surface1">
<path style=" stroke:none;fill-rule:nonzero;fill:rgb(100%,100%,100%);fill-opacity:1;" d="M 0 244.476562 L 326.828125 244.476562 L 326.828125 0 L 0 0 Z M 0 244.476562 "/>
<path style=" stroke:none;fill-rule:nonzero;fill:rgb(100%,100%,100%);fill-opacity:1;" d="M 56.828125 194.398438 L 317.226562 194.398438 L 317.226562 9.601562 L 56.828125 9.601562 Z M 56.828125 194.398438 "/>
<path style="fill:none;stroke-width:0.8;stroke-linecap:butt;stroke-linejoin:round;stroke:rgb(0%,0%,0%);stroke-opacity:1;stroke-miterlimit:4;" d="M 0.000778198 -0.00117493 L 0.000778198 3.499802 " transform="matrix(1.333333,0,0,1.333333,117.858337,194.400004)"/>
<path style=" stroke:none;fill-rule:nonzero;fill:rgb(0%,0%,0%);fill-opacity:1;" d="M 109.441406 209.132812 L 117.789062 209.132812 L 117.789062 210.238281 L 109.441406 210.238281 Z M 109.441406 209.132812 "/>
<path style=" stroke:none;fill-rule:nonzero;fill:rgb(0%,0%,0%);fill-opacity:1;" d="M 124.242188 205.289062 L 120.921875 210.480469 L 124.242188 210.480469 Z M 123.894531 204.144531 L 125.550781 204.144531 L 125.550781 210.480469 L 126.9375 210.480469 L 126.9375 211.574219 L 125.550781 211.574219 L 125.550781 213.863281 L 124.242188 213.863281 L 124.242188 211.574219 L 119.855469 211.574219 L 119.855469 210.304688 Z M 123.894531 204.144531 "/>
<path style="fill:none;stroke-width:0.8;stroke-linecap:butt;stroke-linejoin:round;stroke:rgb(0%,0%,0%);stroke-opacity:1;stroke-miterlimit:4;" d="M 0.000778198 -0.00117493 L 0.000778198 3.499802 " transform="matrix(1.333333,0,0,1.333333,199.233337,194.400004)"/>
<path style=" stroke:none;fill-rule:nonzero;fill:rgb(0%,0%,0%);fill-opacity:1;" d="M 190.816406 209.132812 L 199.164062 209.132812 L 199.164062 210.238281 L 190.816406 210.238281 Z M 190.816406 209.132812 "/>
<path style=" stroke:none;fill-rule:nonzero;fill:rgb(0%,0%,0%);fill-opacity:1;" d="M 203.136719 212.757812 L 207.726562 212.757812 L 207.726562 213.863281 L 201.554688 213.863281 L 201.554688 212.757812 C 202.054688 212.242188 202.734375 211.546875 203.59375 210.679688 C 204.457031 209.808594 204.996094 209.246094 205.21875 208.992188 C 205.640625 208.523438 205.933594 208.121094 206.101562 207.792969 C 206.269531 207.464844 206.351562 207.144531 206.351562 206.828125 C 206.351562 206.308594 206.171875 205.890625 205.808594 205.566406 C 205.445312 205.238281 204.972656 205.074219 204.390625 205.074219 C 203.980469 205.074219 203.542969 205.148438 203.085938 205.289062 C 202.628906 205.433594 202.140625 205.648438 201.617188 205.941406 L 201.617188 204.613281 C 202.148438 204.398438 202.640625 204.238281 203.101562 204.132812 C 203.5625 204.023438 203.984375 203.96875 204.367188 203.96875 C 205.375 203.96875 206.175781 204.222656 206.773438 204.726562 C 207.375 205.226562 207.671875 205.898438 207.671875 206.742188 C 207.671875 207.140625 207.597656 207.519531 207.449219 207.878906 C 207.300781 208.234375 207.027344 208.65625 206.632812 209.144531 C 206.523438 209.269531 206.179688 209.632812 205.597656 210.234375 C 205.015625 210.835938 204.195312 211.679688 203.136719 212.757812 Z M 203.136719 212.757812 "/>
<path style="fill:none;stroke-width:0.8;stroke-linecap:butt;stroke-linejoin:round;stroke:rgb(0%,0%,0%);stroke-opacity:1;stroke-miterlimit:4;" d="M 0.000778198 -0.00117493 L 0.000778198 3.499802 " transform="matrix(1.333333,0,0,1.333333,280.608337,194.400004)"/>
<path style=" stroke:none;fill-rule:nonzero;fill:rgb(0%,0%,0%);fill-opacity:1;" d="M 280.605469 205.011719 C 279.929688 205.011719 279.417969 205.34375 279.078125 206.011719 C 278.738281 206.675781 278.566406 207.675781 278.566406 209.015625 C 278.566406 210.347656 278.738281 211.347656 279.078125 212.011719 C 279.417969 212.679688 279.929688 213.011719 280.605469 213.011719 C 281.285156 213.011719 281.796875 212.679688 282.136719 212.011719 C 282.480469 211.347656 282.648438 210.347656 282.648438 209.015625 C 282.648438 207.675781 282.480469 206.675781 282.136719 206.011719 C 281.796875 205.34375 281.285156 205.011719 280.605469 205.011719 Z M 280.605469 203.96875 C 281.695312 203.96875 282.527344 204.398438 283.101562 205.261719 C 283.675781 206.125 283.964844 207.375 283.964844 209.015625 C 283.964844 210.652344 283.675781 211.898438 283.101562 212.761719 C 282.527344 213.625 281.695312 214.054688 280.605469 214.054688 C 279.515625 214.054688 278.683594 213.625 278.109375 212.761719 C 277.535156 211.898438 277.246094 210.652344 277.246094 209.015625 C 277.246094 207.375 277.535156 206.125 278.109375 205.261719 C 278.683594 204.398438 279.515625 203.96875 280.605469 203.96875 Z M 280.605469 203.96875 "/>
<path style=" stroke:none;fill-rule:nonzero;fill:rgb(0%,0%,0%);fill-opacity:1;" d="M 186.160156 224.808594 L 183.519531 228.359375 L 186.292969 232.101562 L 184.882812 232.101562 L 182.757812 229.238281 L 180.636719 232.101562 L 179.222656 232.101562 L 182.054688 228.289062 L 179.464844 224.808594 L 180.878906 224.808594 L 182.808594 227.410156 L 184.742188 224.808594 Z M 186.160156 224.808594 "/>
<path style=" stroke:none;fill-rule:nonzero;fill:rgb(0%,0%,0%);fill-opacity:1;" d="M 188.382812 230.996094 L 190.53125 230.996094 L 190.53125 223.578125 L 188.195312 224.046875 L 188.195312 222.851562 L 190.519531 222.382812 L 191.835938 222.382812 L 191.835938 230.996094 L 193.980469 230.996094 L 193.980469 232.101562 L 188.382812 232.101562 Z M 188.382812 230.996094 "/>
<path style="fill:none;stroke-width:0.8;stroke-linecap:butt;stroke-linejoin:round;stroke:rgb(0%,0%,0%);stroke-opacity:1;stroke-miterlimit:4;" d="M 0.000782013 -0.00117493 L -3.500195 -0.00117493 " transform="matrix(1.333333,0,0,1.333333,56.827082,194.400004)"/>
<path style=" stroke:none;fill-rule:nonzero;fill:rgb(0%,0%,0%);fill-opacity:1;" d="M 29.25 194.730469 L 37.597656 194.730469 L 37.597656 195.839844 L 29.25 195.839844 Z M 29.25 194.730469 "/>
<path style=" stroke:none;fill-rule:nonzero;fill:rgb(0%,0%,0%);fill-opacity:1;" d="M 44.417969 194.222656 C 45.050781 194.359375 45.539062 194.640625 45.894531 195.066406 C 46.246094 195.492188 46.425781 196.015625 46.425781 196.640625 C 46.425781 197.597656 46.09375 198.339844 45.433594 198.867188 C 44.773438 199.394531 43.835938 199.65625 42.621094 199.65625 C 42.214844 199.65625 41.796875 199.613281 41.363281 199.535156 C 40.929688 199.453125 40.484375 199.332031 40.027344 199.171875 L 40.027344 197.902344 C 40.390625 198.117188 40.789062 198.277344 41.222656 198.382812 C 41.65625 198.492188 42.109375 198.546875 42.585938 198.546875 C 43.40625 198.546875 44.035156 198.382812 44.46875 198.058594 C 44.898438 197.734375 45.117188 197.261719 45.117188 196.640625 C 45.117188 196.066406 44.914062 195.617188 44.511719 195.296875 C 44.113281 194.972656 43.554688 194.8125 42.839844 194.8125 L 41.707031 194.8125 L 41.707031 193.730469 L 42.890625 193.730469 C 43.535156 193.730469 44.03125 193.601562 44.375 193.34375 C 44.71875 193.085938 44.886719 192.710938 44.886719 192.226562 C 44.886719 191.726562 44.710938 191.34375 44.355469 191.078125 C 44.003906 190.808594 43.5 190.675781 42.839844 190.675781 C 42.476562 190.675781 42.089844 190.714844 41.679688 190.792969 C 41.265625 190.871094 40.8125 190.992188 40.316406 191.15625 L 40.316406 189.988281 C 40.816406 189.847656 41.285156 189.742188 41.722656 189.675781 C 42.15625 189.605469 42.570312 189.570312 42.957031 189.570312 C 43.953125 189.570312 44.742188 189.796875 45.324219 190.25 C 45.90625 190.703125 46.195312 191.316406 46.195312 192.089844 C 46.195312 192.628906 46.042969 193.082031 45.734375 193.453125 C 45.425781 193.824219 44.988281 194.082031 44.417969 194.222656 Z M 44.417969 194.222656 "/>
<path style="fill:none;stroke-width:0.8;stroke-linecap:butt;stroke-linejoin:round;stroke:rgb(0%,0%,0%);stroke-opacity:1;stroke-miterlimit:4;" d="M 0.000782013 0.000183105 L -3.500195 0.000183105 " transform="matrix(1.333333,0,0,1.333333,56.827082,147.015381)"/>
<path style=" stroke:none;fill-rule:nonzero;fill:rgb(0%,0%,0%);fill-opacity:1;" d="M 29.25 147.347656 L 37.597656 147.347656 L 37.597656 148.453125 L 29.25 148.453125 Z M 29.25 147.347656 "/>
<path style=" stroke:none;fill-rule:nonzero;fill:rgb(0%,0%,0%);fill-opacity:1;" d="M 41.566406 150.976562 L 46.15625 150.976562 L 46.15625 152.082031 L 39.988281 152.082031 L 39.988281 150.976562 C 40.484375 150.457031 41.164062 149.765625 42.027344 148.894531 C 42.886719 148.023438 43.429688 147.464844 43.652344 147.210938 C 44.070312 146.738281 44.367188 146.339844 44.53125 146.011719 C 44.699219 145.683594 44.785156 145.359375 44.785156 145.042969 C 44.785156 144.527344 44.601562 144.105469 44.242188 143.78125 C 43.878906 143.453125 43.40625 143.292969 42.824219 143.292969 C 42.410156 143.292969 41.976562 143.363281 41.519531 143.507812 C 41.0625 143.648438 40.570312 143.867188 40.050781 144.15625 L 40.050781 142.828125 C 40.582031 142.617188 41.074219 142.457031 41.535156 142.347656 C 41.996094 142.238281 42.417969 142.183594 42.800781 142.183594 C 43.804688 142.183594 44.609375 142.4375 45.207031 142.941406 C 45.804688 143.445312 46.105469 144.117188 46.105469 144.957031 C 46.105469 145.359375 46.03125 145.738281 45.878906 146.09375 C 45.730469 146.453125 45.460938 146.875 45.0625 147.359375 C 44.957031 147.488281 44.609375 147.851562 44.027344 148.453125 C 43.449219 149.054688 42.628906 149.894531 41.566406 150.976562 Z M 41.566406 150.976562 "/>
<path style="fill:none;stroke-width:0.8;stroke-linecap:butt;stroke-linejoin:round;stroke:rgb(0%,0%,0%);stroke-opacity:1;stroke-miterlimit:4;" d="M 0.000782013 -0.00139618 L -3.500195 -0.00139618 " transform="matrix(1.333333,0,0,1.333333,56.827082,99.630768)"/>
<path style=" stroke:none;fill-rule:nonzero;fill:rgb(0%,0%,0%);fill-opacity:1;" d="M 29.25 99.964844 L 37.597656 99.964844 L 37.597656 101.070312 L 29.25 101.070312 Z M 29.25 99.964844 "/>
<path style=" stroke:none;fill-rule:nonzero;fill:rgb(0%,0%,0%);fill-opacity:1;" d="M 40.664062 103.589844 L 42.8125 103.589844 L 42.8125 96.171875 L 40.472656 96.640625 L 40.472656 95.445312 L 42.800781 94.976562 L 44.113281 94.976562 L 44.113281 103.589844 L 46.261719 103.589844 L 46.261719 104.695312 L 40.664062 104.695312 Z M 40.664062 103.589844 "/>
<path style="fill:none;stroke-width:0.8;stroke-linecap:butt;stroke-linejoin:round;stroke:rgb(0%,0%,0%);stroke-opacity:1;stroke-miterlimit:4;" d="M 0.000782013 -0.0000457764 L -3.500195 -0.0000457764 " transform="matrix(1.333333,0,0,1.333333,56.827082,52.246155)"/>
<path style=" stroke:none;fill-rule:nonzero;fill:rgb(0%,0%,0%);fill-opacity:1;" d="M 43.246094 48.457031 C 42.570312 48.457031 42.0625 48.789062 41.722656 49.457031 C 41.378906 50.121094 41.210938 51.125 41.210938 52.460938 C 41.210938 53.792969 41.378906 54.792969 41.722656 55.460938 C 42.0625 56.125 42.570312 56.460938 43.246094 56.460938 C 43.929688 56.460938 44.441406 56.125 44.78125 55.460938 C 45.121094 54.792969 45.292969 53.792969 45.292969 52.460938 C 45.292969 51.125 45.121094 50.121094 44.78125 49.457031 C 44.441406 48.789062 43.929688 48.457031 43.246094 48.457031 Z M 43.246094 47.414062 C 44.339844 47.414062 45.171875 47.847656 45.746094 48.710938 C 46.320312 49.570312 46.609375 50.820312 46.609375 52.460938 C 46.609375 54.097656 46.320312 55.347656 45.746094 56.210938 C 45.171875 57.070312 44.339844 57.5 43.246094 57.5 C 42.160156 57.5 41.328125 57.070312 40.753906 56.210938 C 40.175781 55.347656 39.890625 54.097656 39.890625 52.460938 C 39.890625 50.820312 40.175781 49.570312 40.753906 48.710938 C 41.328125 47.847656 42.160156 47.414062 43.246094 47.414062 Z M 43.246094 47.414062 "/>
<path style=" stroke:none;fill-rule:nonzero;fill:rgb(0%,0%,0%);fill-opacity:1;" d="M 12.441406 102.867188 L 15.988281 105.507812 L 19.730469 102.734375 L 19.730469 104.144531 L 16.867188 106.269531 L 19.730469 108.390625 L 19.730469 109.804688 L 15.917969 106.972656 L 12.441406 109.5625 L 12.441406 108.148438 L 15.039062 106.214844 L 12.441406 104.285156 Z M 12.441406 102.867188 "/>
<path style=" stroke:none;fill-rule:nonzero;fill:rgb(0%,0%,0%);fill-opacity:1;" d="M 18.625 99.738281 L 18.625 95.148438 L 19.730469 95.148438 L 19.730469 101.320312 L 18.625 101.320312 C 18.109375 100.820312 17.414062 100.140625 16.546875 99.28125 C 15.675781 98.417969 15.113281 97.875 14.859375 97.65625 C 14.386719 97.234375 13.988281 96.941406 13.660156 96.773438 C 13.332031 96.605469 13.011719 96.523438 12.695312 96.523438 C 12.175781 96.523438 11.757812 96.703125 11.429688 97.066406 C 11.105469 97.429688 10.941406 97.898438 10.941406 98.480469 C 10.941406 98.894531 11.011719 99.332031 11.15625 99.789062 C 11.300781 100.246094 11.515625 100.734375 11.808594 101.253906 L 10.480469 101.253906 C 10.265625 100.726562 10.105469 100.230469 9.996094 99.773438 C 9.890625 99.3125 9.835938 98.890625 9.835938 98.507812 C 9.835938 97.5 10.085938 96.699219 10.589844 96.097656 C 11.09375 95.5 11.765625 95.199219 12.609375 95.199219 C 13.007812 95.199219 13.386719 95.277344 13.746094 95.425781 C 14.101562 95.574219 14.523438 95.847656 15.011719 96.242188 C 15.136719 96.351562 15.5 96.695312 16.101562 97.277344 C 16.703125 97.859375 17.542969 98.679688 18.625 99.738281 Z M 18.625 99.738281 "/>
<path style="fill:none;stroke-width:1.5;stroke-linecap:square;stroke-linejoin:round;stroke:rgb(100%,49.803922%,5.490196%);stroke-opacity:1;stroke-miterlimit:4;" d="M 57.878906 110.261719 L 118.910156 39.18457 L 210.386719 39.18457 " transform="matrix(1.333333,0,0,1.333333,0,0.000000000000014211)"/>
<path style="fill-rule:nonzero;fill:rgb(100%,49.803922%,5.490196%);fill-opacity:1;stroke-width:1;stroke-linecap:butt;stroke-linejoin:round;stroke:rgb(100%,49.803922%,5.490196%);stroke-opacity:1;stroke-miterlimit:4;" d="M 0.000782013 3.000183 C 0.794727 3.000183 1.559376 2.683777 2.121876 2.121277 C 2.684376 1.558777 3.000782 0.797058 3.000782 0.000183105 C 3.000782 -0.796692 2.684376 -1.558411 2.121876 -2.120911 C 1.559376 -2.683411 0.794727 -2.999817 0.000782013 -2.999817 C -0.796093 -2.999817 -1.557812 -2.683411 -2.120312 -2.120911 C -2.682812 -1.558411 -2.999218 -0.796692 -2.999218 0.000183105 C -2.999218 0.797058 -2.682812 1.558777 -2.120312 2.121277 C -1.557812 2.683777 -0.796093 3.000183 0.000782013 3.000183 Z M 0.000782013 3.000183 " transform="matrix(1.333333,0,0,1.333333,77.170832,147.015381)"/>
<path style="fill-rule:nonzero;fill:rgb(100%,49.803922%,5.490196%);fill-opacity:1;stroke-width:1;stroke-linecap:butt;stroke-linejoin:round;stroke:rgb(100%,49.803922%,5.490196%);stroke-opacity:1;stroke-miterlimit:4;" d="M 0.000808716 2.999954 C 0.794754 2.999954 1.559402 2.683548 2.121902 2.121048 C 2.684402 1.558548 3.000809 0.796829 3.000809 -0.0000457764 C 3.000809 -0.796921 2.684402 -1.55864 2.121902 -2.12114 C 1.559402 -2.68364 0.794754 -3.000046 0.000808716 -3.000046 C -0.796066 -3.000046 -1.557785 -2.68364 -2.120285 -2.12114 C -2.682785 -1.55864 -2.999191 -0.796921 -2.999191 -0.0000457764 C -2.999191 0.796829 -2.682785 1.558548 -2.120285 2.121048 C -1.557785 2.683548 -0.796066 2.999954 0.000808716 2.999954 Z M 0.000808716 2.999954 " transform="matrix(1.333333,0,0,1.333333,158.545797,52.246155)"/>
<path style="fill-rule:nonzero;fill:rgb(100%,49.803922%,5.490196%);fill-opacity:1;stroke-width:1;stroke-linecap:butt;stroke-linejoin:round;stroke:rgb(100%,49.803922%,5.490196%);stroke-opacity:1;stroke-miterlimit:4;" d="M 0.00088501 2.999954 C 0.79483 2.999954 1.559479 2.683548 2.121979 2.121048 C 2.684479 1.558548 3.000885 0.796829 3.000885 -0.0000457764 C 3.000885 -0.796921 2.684479 -1.55864 2.121979 -2.12114 C 1.559479 -2.68364 0.79483 -3.000046 0.00088501 -3.000046 C -0.79599 -3.000046 -1.557709 -2.68364 -2.120209 -2.12114 C -2.682709 -1.55864 -2.999115 -0.796921 -2.999115 -0.0000457764 C -2.999115 0.796829 -2.682709 1.558548 -2.120209 2.121048 C -1.557709 2.683548 -0.79599 2.999954 0.00088501 2.999954 Z M 0.00088501 2.999954 " transform="matrix(1.333333,0,0,1.333333,200.412882,52.246155)"/>
<path style="fill-rule:nonzero;fill:rgb(100%,49.803922%,5.490196%);fill-opacity:1;stroke-width:1;stroke-linecap:butt;stroke-linejoin:round;stroke:rgb(100%,49.803922%,5.490196%);stroke-opacity:1;stroke-miterlimit:4;" d="M 0.00108337 2.999954 C 0.795029 2.999954 1.559677 2.683548 2.122177 2.121048 C 2.684677 1.558548 3.001083 0.796829 3.001083 -0.0000457764 C 3.001083 -0.796921 2.684677 -1.55864 2.122177 -2.12114 C 1.559677 -2.68364 0.795029 -3.000046 0.00108337 -3.000046 C -0.795792 -3.000046 -1.55751 -2.68364 -2.12001 -2.12114 C -2.68251 -1.55864 -2.998917 -0.796921 -2.998917 -0.0000457764 C -2.998917 0.796829 -2.68251 1.558548 -2.12001 2.121048 C -1.55751 2.683548 -0.795792 2.999954 0.00108337 2.999954 Z M 0.00108337 2.999954 " transform="matrix(1.333333,0,0,1.333333,226.471212,52.246155)"/>
<path style="fill-rule:nonzero;fill:rgb(100%,49.803922%,5.490196%);fill-opacity:1;stroke-width:1;stroke-linecap:butt;stroke-linejoin:round;stroke:rgb(100%,49.803922%,5.490196%);stroke-opacity:1;stroke-miterlimit:4;" d="M -0.000793457 2.999954 C 0.796082 2.999954 1.5578 2.683548 2.1203 2.121048 C 2.6828 1.558548 2.999207 0.796829 2.999207 -0.0000457764 C 2.999207 -0.796921 2.6828 -1.55864 2.1203 -2.12114 C 1.5578 -2.68364 0.796082 -3.000046 -0.000793457 -3.000046 C -0.794739 -3.000046 -1.559387 -2.68364 -2.121887 -2.12114 C -2.684387 -1.55864 -3.000793 -0.796921 -3.000793 -0.0000457764 C -3.000793 0.796829 -2.684387 1.558548 -2.121887 2.121048 C -1.559387 2.683548 -0.794739 2.999954 -0.000793457 2.999954 Z M -0.000793457 2.999954 " transform="matrix(1.333333,0,0,1.333333,243.66512,52.246155)"/>
<path style="fill-rule:nonzero;fill:rgb(100%,49.803922%,5.490196%);fill-opacity:1;stroke-width:1;stroke-linecap:butt;stroke-linejoin:round;stroke:rgb(100%,49.803922%,5.490196%);stroke-opacity:1;stroke-miterlimit:4;" d="M -0.000610352 2.999954 C 0.796265 2.999954 1.557983 2.683548 2.120483 2.121048 C 2.682983 1.558548 2.99939 0.796829 2.99939 -0.0000457764 C 2.99939 -0.796921 2.682983 -1.55864 2.120483 -2.12114 C 1.557983 -2.68364 0.796265 -3.000046 -0.000610352 -3.000046 C -0.794556 -3.000046 -1.559204 -2.68364 -2.121704 -2.12114 C -2.684204 -1.55864 -3.00061 -0.796921 -3.00061 -0.0000457764 C -3.00061 0.796829 -2.684204 1.558548 -2.121704 2.121048 C -1.559204 2.683548 -0.794556 2.999954 -0.000610352 2.999954 Z M -0.000610352 2.999954 " transform="matrix(1.333333,0,0,1.333333,255.278158,52.246155)"/>
<path style="fill-rule:nonzero;fill:rgb(100%,49.803922%,5.490196%);fill-opacity:1;stroke-width:1;stroke-linecap:butt;stroke-linejoin:round;stroke:rgb(100%,49.803922%,5.490196%);stroke-opacity:1;stroke-miterlimit:4;" d="M 0.000228882 2.999954 C 0.794174 2.999954 1.558823 2.683548 2.121323 2.121048 C 2.683823 1.558548 3.000229 0.796829 3.000229 -0.0000457764 C 3.000229 -0.796921 2.683823 -1.55864 2.121323 -2.12114 C 1.558823 -2.68364 0.794174 -3.000046 0.000228882 -3.000046 C -0.796646 -3.000046 -1.558365 -2.68364 -2.120865 -2.12114 C -2.683365 -1.55864 -2.999771 -0.796921 -2.999771 -0.0000457764 C -2.999771 0.796829 -2.683365 1.558548 -2.120865 2.121048 C -1.558365 2.683548 -0.796646 2.999954 0.000228882 2.999954 Z M 0.000228882 2.999954 " transform="matrix(1.333333,0,0,1.333333,263.20282,52.246155)"/>
<path style="fill-rule:nonzero;fill:rgb(100%,49.803922%,5.490196%);fill-opacity:1;stroke-width:1;stroke-linecap:butt;stroke-linejoin:round;stroke:rgb(100%,49.803922%,5.490196%);stroke-opacity:1;stroke-miterlimit:4;" d="M 0.00050354 2.999954 C 0.794449 2.999954 1.559097 2.683548 2.121597 2.121048 C 2.684097 1.558548 3.000504 0.796829 3.000504 -0.0000457764 C 3.000504 -0.796921 2.684097 -1.55864 2.121597 -2.12114 C 1.559097 -2.68364 0.794449 -3.000046 0.00050354 -3.000046 C -0.796371 -3.000046 -1.55809 -2.68364 -2.12059 -2.12114 C -2.68309 -1.55864 -2.999496 -0.796921 -2.999496 -0.0000457764 C -2.999496 0.796829 -2.68309 1.558548 -2.12059 2.121048 C -1.55809 2.683548 -0.796371 2.999954 0.00050354 2.999954 Z M 0.00050354 2.999954 " transform="matrix(1.333333,0,0,1.333333,268.636047,52.246155)"/>
<path style="fill-rule:nonzero;fill:rgb(100%,49.803922%,5.490196%);fill-opacity:1;stroke-width:1;stroke-linecap:butt;stroke-linejoin:round;stroke:rgb(100%,49.803922%,5.490196%);stroke-opacity:1;stroke-miterlimit:4;" d="M 0.00131226 2.999954 C 0.795258 2.999954 1.559906 2.683548 2.122406 2.121048 C 2.684906 1.558548 3.001312 0.796829 3.001312 -0.0000457764 C 3.001312 -0.796921 2.684906 -1.55864 2.122406 -2.12114 C 1.559906 -2.68364 0.795258 -3.000046 0.00131226 -3.000046 C -0.795563 -3.000046 -1.557281 -2.68364 -2.122711 -2.12114 C -2.685211 -1.55864 -2.998688 -0.796921 -2.998688 -0.0000457764 C -2.998688 0.796829 -2.685211 1.558548 -2.122711 2.121048 C -1.557281 2.683548 -0.795563 2.999954 0.00131226 2.999954 Z M 0.00131226 2.999954 " transform="matrix(1.333333,0,0,1.333333,272.369344,52.246155)"/>
<path style="fill-rule:nonzero;fill:rgb(100%,49.803922%,5.490196%);fill-opacity:1;stroke-width:1;stroke-linecap:butt;stroke-linejoin:round;stroke:rgb(100%,49.803922%,5.490196%);stroke-opacity:1;stroke-miterlimit:4;" d="M 0.000213623 2.999954 C 0.794159 2.999954 1.558807 2.683548 2.121307 2.121048 C 2.683807 1.558548 3.000214 0.796829 3.000214 -0.0000457764 C 3.000214 -0.796921 2.683807 -1.55864 2.121307 -2.12114 C 1.558807 -2.68364 0.794159 -3.000046 0.000213623 -3.000046 C -0.796661 -3.000046 -1.55838 -2.68364 -2.12088 -2.12114 C -2.68338 -1.55864 -2.999786 -0.796921 -2.999786 -0.0000457764 C -2.999786 0.796829 -2.68338 1.558548 -2.12088 2.121048 C -1.55838 2.683548 -0.796661 2.999954 0.000213623 2.999954 Z M 0.000213623 2.999954 " transform="matrix(1.333333,0,0,1.333333,274.937215,52.246155)"/>
<path style="fill-rule:nonzero;fill:rgb(100%,49.803922%,5.490196%);fill-opacity:1;stroke-width:1;stroke-linecap:butt;stroke-linejoin:round;stroke:rgb(100%,49.803922%,5.490196%);stroke-opacity:1;stroke-miterlimit:4;" d="M -0.000900269 2.999954 C 0.795975 2.999954 1.557693 2.683548 2.120193 2.121048 C 2.682693 1.558548 2.9991 0.796829 2.9991 -0.0000457764 C 2.9991 -0.796921 2.682693 -1.55864 2.120193 -2.12114 C 1.557693 -2.68364 0.795975 -3.000046 -0.000900269 -3.000046 C -0.794846 -3.000046 -1.559494 -2.68364 -2.121994 -2.12114 C -2.684494 -1.55864 -3.0009 -0.796921 -3.0009 -0.0000457764 C -3.0009 0.796829 -2.684494 1.558548 -2.121994 2.121048 C -1.559494 2.683548 -0.794846 2.999954 -0.000900269 2.999954 Z M -0.000900269 2.999954 " transform="matrix(1.333333,0,0,1.333333,276.704325,52.246155)"/>
<path style="fill-rule:nonzero;fill:rgb(100%,49.803922%,5.490196%);fill-opacity:1;stroke-width:1;stroke-linecap:butt;stroke-linejoin:round;stroke:rgb(100%,49.803922%,5.490196%);stroke-opacity:1;stroke-miterlimit:4;" d="M 0.000900269 2.999954 C 0.794846 2.999954 1.559494 2.683548 2.121994 2.121048 C 2.684494 1.558548 3.0009 0.796829 3.0009 -0.0000457764 C 3.0009 -0.796921 2.684494 -1.55864 2.121994 -2.12114 C 1.559494 -2.68364 0.794846 -3.000046 0.000900269 -3.000046 C -0.795975 -3.000046 -1.557693 -2.68364 -2.120193 -2.12114 C -2.682693 -1.55864 -2.9991 -0.796921 -2.9991 -0.0000457764 C -2.9991 0.796829 -2.682693 1.558548 -2.120193 2.121048 C -1.557693 2.683548 -0.795975 2.999954 0.000900269 2.999954 Z M 0.000900269 2.999954 " transform="matrix(1.333333,0,0,1.333333,277.920675,52.246155)"/>
<path style="fill-rule:nonzero;fill:rgb(100%,49.803922%,5.490196%);fill-opacity:1;stroke-width:1;stroke-linecap:butt;stroke-linejoin:round;stroke:rgb(100%,49.803922%,5.490196%);stroke-opacity:1;stroke-miterlimit:4;" d="M -0.000137329 2.999954 C 0.796738 2.999954 1.558456 2.683548 2.120956 2.121048 C 2.683456 1.558548 2.999863 0.796829 2.999863 -0.0000457764 C 2.999863 -0.796921 2.683456 -1.55864 2.120956 -2.12114 C 1.558456 -2.68364 0.796738 -3.000046 -0.000137329 -3.000046 C -0.797012 -3.000046 -1.558731 -2.68364 -2.121231 -2.12114 C -2.683731 -1.55864 -3.000137 -0.796921 -3.000137 -0.0000457764 C -3.000137 0.796829 -2.683731 1.558548 -2.121231 2.121048 C -1.558731 2.683548 -0.797012 2.999954 -0.000137329 2.999954 Z M -0.000137329 2.999954 " transform="matrix(1.333333,0,0,1.333333,278.757996,52.246155)"/>
<path style="fill-rule:nonzero;fill:rgb(100%,49.803922%,5.490196%);fill-opacity:1;stroke-width:1;stroke-linecap:butt;stroke-linejoin:round;stroke:rgb(100%,49.803922%,5.490196%);stroke-opacity:1;stroke-miterlimit:4;" d="M 0.00111389 2.999954 C 0.795059 2.999954 1.559708 2.683548 2.122208 2.121048 C 2.684708 1.558548 3.001114 0.796829 3.001114 -0.0000457764 C 3.001114 -0.796921 2.684708 -1.55864 2.122208 -2.12114 C 1.559708 -2.68364 0.795059 -3.000046 0.00111389 -3.000046 C -0.795761 -3.000046 -1.55748 -2.68364 -2.11998 -2.12114 C -2.68248 -1.55864 -2.998886 -0.796921 -2.998886 -0.0000457764 C -2.998886 0.796829 -2.68248 1.558548 -2.11998 2.121048 C -1.55748 2.683548 -0.795761 2.999954 0.00111389 2.999954 Z M 0.00111389 2.999954 " transform="matrix(1.333333,0,0,1.333333,279.334452,52.246155)"/>
<path style="fill-rule:nonzero;fill:rgb(100%,49.803922%,5.490196%);fill-opacity:1;stroke-width:1;stroke-linecap:butt;stroke-linejoin:round;stroke:rgb(100%,49.803922%,5.490196%);stroke-opacity:1;stroke-miterlimit:4;" d="M -0.000640869 2.999954 C 0.796234 2.999954 1.557953 2.683548 2.120453 2.121048 C 2.682953 1.558548 2.999359 0.796829 2.999359 -0.0000457764 C 2.999359 -0.796921 2.682953 -1.55864 2.120453 -2.12114 C 1.557953 -2.68364 0.796234 -3.000046 -0.000640869 -3.000046 C -0.794586 -3.000046 -1.559235 -2.68364 -2.121735 -2.12114 C -2.684235 -1.55864 -3.000641 -0.796921 -3.000641 -0.0000457764 C -3.000641 0.796829 -2.684235 1.558548 -2.121735 2.121048 C -1.559235 2.683548 -0.794586 2.999954 -0.000640869 2.999954 Z M -0.000640869 2.999954 " transform="matrix(1.333333,0,0,1.333333,279.731323,52.246155)"/>
<path style="fill-rule:nonzero;fill:rgb(100%,49.803922%,5.490196%);fill-opacity:1;stroke-width:1;stroke-linecap:butt;stroke-linejoin:round;stroke:rgb(100%,49.803922%,5.490196%);stroke-opacity:1;stroke-miterlimit:4;" d="M -0.000473022 2.999954 C 0.796402 2.999954 1.558121 2.683548 2.120621 2.121048 C 2.683121 1.558548 2.999527 0.796829 2.999527 -0.0000457764 C 2.999527 -0.796921 2.683121 -1.55864 2.120621 -2.12114 C 1.558121 -2.68364 0.796402 -3.000046 -0.000473022 -3.000046 C -0.794418 -3.000046 -1.559067 -2.68364 -2.121567 -2.12114 C -2.684067 -1.55864 -3.000473 -0.796921 -3.000473 -0.0000457764 C -3.000473 0.796829 -2.684067 1.558548 -2.121567 2.121048 C -1.559067 2.683548 -0.794418 2.999954 -0.000473022 2.999954 Z M -0.000473022 2.999954 " transform="matrix(1.333333,0,0,1.333333,280.004537,52.246155)"/>
<path style="fill-rule:nonzero;fill:rgb(100%,49.803922%,5.490196%);fill-opacity:1;stroke-width:1;stroke-linecap:butt;stroke-linejoin:round;stroke:rgb(100%,49.803922%,5.490196%);stroke-opacity:1;stroke-miterlimit:4;" d="M -0.000930786 2.999954 C 0.795944 2.999954 1.557663 2.683548 2.120163 2.121048 C 2.682663 1.558548 2.999069 0.796829 2.999069 -0.0000457764 C 2.999069 -0.796921 2.682663 -1.55864 2.120163 -2.12114 C 1.557663 -2.68364 0.795944 -3.000046 -0.000930786 -3.000046 C -0.794876 -3.000046 -1.559525 -2.68364 -2.122025 -2.12114 C -2.684525 -1.55864 -3.000931 -0.796921 -3.000931 -0.0000457764 C -3.000931 0.796829 -2.684525 1.558548 -2.122025 2.121048 C -1.559525 2.683548 -0.794876 2.999954 -0.000930786 2.999954 Z M -0.000930786 2.999954 " transform="matrix(1.333333,0,0,1.333333,280.192647,52.246155)"/>
<path style="fill-rule:nonzero;fill:rgb(100%,49.803922%,5.490196%);fill-opacity:1;stroke-width:1;stroke-linecap:butt;stroke-linejoin:round;stroke:rgb(100%,49.803922%,5.490196%);stroke-opacity:1;stroke-miterlimit:4;" d="M -0.00137329 2.999954 C 0.795502 2.999954 1.56015 2.683548 2.12265 2.121048 C 2.68515 1.558548 2.998627 0.796829 2.998627 -0.0000457764 C 2.998627 -0.796921 2.68515 -1.55864 2.12265 -2.12114 C 1.56015 -2.68364 0.795502 -3.000046 -0.00137329 -3.000046 C -0.795319 -3.000046 -1.559967 -2.68364 -2.122467 -2.12114 C -2.684967 -1.55864 -3.001373 -0.796921 -3.001373 -0.0000457764 C -3.001373 0.796829 -2.684967 1.558548 -2.122467 2.121048 C -1.559967 2.683548 -0.795319 2.999954 -0.00137329 2.999954 Z M -0.00137329 2.999954 " transform="matrix(1.333333,0,0,1.333333,280.322144,52.246155)"/>
<path style="fill-rule:nonzero;fill:rgb(100%,49.803922%,5.490196%);fill-opacity:1;stroke-width:1;stroke-linecap:butt;stroke-linejoin:round;stroke:rgb(100%,49.803922%,5.490196%);stroke-opacity:1;stroke-miterlimit:4;" d="M -0.000854492 2.999954 C 0.796021 2.999954 1.557739 2.683548 2.120239 2.121048 C 2.682739 1.558548 2.999146 0.796829 2.999146 -0.0000457764 C 2.999146 -0.796921 2.682739 -1.55864 2.120239 -2.12114 C 1.557739 -2.68364 0.796021 -3.000046 -0.000854492 -3.000046 C -0.7948 -3.000046 -1.559448 -2.68364 -2.121948 -2.12114 C -2.684448 -1.55864 -3.000854 -0.796921 -3.000854 -0.0000457764 C -3.000854 0.796829 -2.684448 1.558548 -2.121948 2.121048 C -1.559448 2.683548 -0.7948 2.999954 -0.000854492 2.999954 Z M -0.000854492 2.999954 " transform="matrix(1.333333,0,0,1.333333,280.411296,52.246155)"/>
<path style="fill-rule:nonzero;fill:rgb(100%,49.803922%,5.490196%);fill-opacity:1;stroke-width:1;stroke-linecap:butt;stroke-linejoin:round;stroke:rgb(100%,49.803922%,5.490196%);stroke-opacity:1;stroke-miterlimit:4;" d="M -0.0000152588 2.999954 C 0.79686 2.999954 1.558578 2.683548 2.121078 2.121048 C 2.683578 1.558548 2.999985 0.796829 2.999985 -0.0000457764 C 2.999985 -0.796921 2.683578 -1.55864 2.121078 -2.12114 C 1.558578 -2.68364 0.79686 -3.000046 -0.0000152588 -3.000046 C -0.79689 -3.000046 -1.558609 -2.68364 -2.121109 -2.12114 C -2.683609 -1.55864 -3.000015 -0.796921 -3.000015 -0.0000457764 C -3.000015 0.796829 -2.683609 1.558548 -2.121109 2.121048 C -1.558609 2.683548 -0.79689 2.999954 -0.0000152588 2.999954 Z M -0.0000152588 2.999954 " transform="matrix(1.333333,0,0,1.333333,280.472677,52.246155)"/>
<path style="fill-rule:nonzero;fill:rgb(100%,49.803922%,5.490196%);fill-opacity:1;stroke-width:1;stroke-linecap:butt;stroke-linejoin:round;stroke:rgb(100%,49.803922%,5.490196%);stroke-opacity:1;stroke-miterlimit:4;" d="M 0.000518799 2.999954 C 0.794464 2.999954 1.559113 2.683548 2.121613 2.121048 C 2.684113 1.558548 3.000519 0.796829 3.000519 -0.0000457764 C 3.000519 -0.796921 2.684113 -1.55864 2.121613 -2.12114 C 1.559113 -2.68364 0.794464 -3.000046 0.000518799 -3.000046 C -0.796356 -3.000046 -1.558075 -2.68364 -2.120575 -2.12114 C -2.683075 -1.55864 -2.999481 -0.796921 -2.999481 -0.0000457764 C -2.999481 0.796829 -2.683075 1.558548 -2.120575 2.121048 C -1.558075 2.683548 -0.796356 2.999954 0.000518799 2.999954 Z M 0.000518799 2.999954 " transform="matrix(1.333333,0,0,1.333333,280.514933,52.246155)"/>
<g clip-path="url(#clip1)" clip-rule="nonzero">
<path style="fill:none;stroke-width:1.5;stroke-linecap:butt;stroke-linejoin:round;stroke:rgb(12.156863%,46.666667%,70.588237%);stroke-opacity:1;stroke-miterlimit:4;" d="M 97.101562 7.201172 L 94.49707 7.869141 L 91.444336 8.674805 L 88.394531 9.500977 L 85.341797 10.347656 L 83.90918 10.754883 L 82.291992 11.276367 L 79.239258 12.28125 L 76.186523 13.3125 L 73.306641 14.308594 L 73.136719 14.375977 L 70.083984 15.621094 L 67.03418 16.889648 L 64.751953 17.862305 L 63.981445 18.249023 L 60.928711 19.816406 L 57.878906 21.416016 L 54.826172 23.408203 L 52.485352 24.969727 L 51.776367 25.579102 L 48.723633 28.245117 L 48.410156 28.523437 L 45.670898 31.933594 L 45.55957 32.077148 L 43.880859 35.630859 L 43.321289 39.18457 L 43.880859 42.738281 L 45.55957 46.291992 L 45.670898 46.435547 L 48.410156 49.845703 L 48.723633 50.124023 L 51.776367 52.790039 L 52.485352 53.399414 L 54.826172 54.960937 L 57.878906 56.953125 L 60.928711 58.552734 L 63.981445 60.120117 L 64.751953 60.506836 L 67.03418 61.479492 L 70.083984 62.748047 L 73.136719 63.993164 L 73.306641 64.060547 L 76.186523 65.056641 L 79.239258 66.087891 L 82.291992 67.092773 L 83.90918 67.614258 L 85.341797 68.024414 L 88.394531 68.871094 L 91.444336 69.694336 L 94.49707 70.5 L 97.101562 71.167969 L 97.549805 71.273437 L 100.599609 71.956055 L 103.652344 72.618164 L 106.702148 73.262695 L 109.754883 73.889648 L 112.807617 74.499023 L 113.967773 74.72168 L 115.857422 75.052734 L 118.910156 75.568359 L 121.959961 76.069336 L 125.012695 76.549805 L 128.06543 77.015625 L 131.115234 77.463867 L 134.167969 77.897461 L 136.96875 78.27832 L 137.217773 78.307617 L 140.270508 78.670898 L 143.323242 79.019531 L 146.373047 79.350586 L 149.425781 79.666992 L 152.475586 79.96875 L 155.52832 80.255859 L 158.581055 80.525391 L 161.630859 80.780273 L 164.683594 81.020508 L 167.733398 81.243164 L 170.786133 81.451172 L 173.838867 81.644531 L 176.888672 81.823242 L 177.035156 81.832031 L 179.941406 81.972656 L 182.991211 82.107422 L 186.043945 82.227539 L 189.09668 82.335937 L 192.146484 82.426758 L 195.199219 82.505859 L 198.249023 82.570312 L 201.301758 82.620117 L 204.354492 82.655273 L 207.404297 82.675781 L 210.457031 82.68457 L 213.506836 82.675781 L 216.55957 82.655273 L 219.612305 82.620117 L 222.662109 82.570312 L 225.714844 82.505859 L 228.764648 82.426758 L 231.817383 82.335937 L 234.870117 82.227539 L 237.919922 82.107422 " transform="matrix(1.333333,0,0,1.333333,0,0.000000000000014211)"/>
</g>
<g clip-path="url(#clip2)" clip-rule="nonzero">
<path style="fill:none;stroke-width:1.5;stroke-linecap:butt;stroke-linejoin:round;stroke:rgb(12.156863%,46.666667%,70.588237%);stroke-opacity:1;stroke-miterlimit:4;" d="M 42.621094 82.505859 L 45.670898 83.279297 L 48.723633 84.041016 L 51.776367 84.788086 L 54.263672 85.385742 L 54.826172 85.508789 L 57.878906 86.173828 L 60.928711 86.827148 L 63.981445 87.462891 L 67.03418 88.089844 L 70.083984 88.702148 L 71.291016 88.939453 L 73.136719 89.276367 L 76.186523 89.821289 L 79.239258 90.354492 L 82.291992 90.875977 L 85.341797 91.382812 L 88.394531 91.880859 L 91.444336 92.364258 L 92.276367 92.493164 L 94.49707 92.8125 L 97.549805 93.243164 L 100.599609 93.662109 L 103.652344 94.069336 L 106.702148 94.464844 L 109.754883 94.848633 L 112.807617 95.220703 L 115.857422 95.581055 L 118.910156 95.932617 L 119.944336 96.046875 L 121.959961 96.254883 L 125.012695 96.5625 L 128.06543 96.858398 L 131.115234 97.145508 L 134.167969 97.417969 L 137.217773 97.681641 L 140.270508 97.936523 L 143.323242 98.179687 L 146.373047 98.411133 L 149.425781 98.630859 L 152.475586 98.841797 L 155.52832 99.041016 L 158.581055 99.228516 L 161.630859 99.407227 L 164.683594 99.574219 L 165.208008 99.600586 L 167.733398 99.720703 L 170.786133 99.858398 L 173.838867 99.987305 L 176.888672 100.101562 L 179.941406 100.209961 L 182.991211 100.306641 L 186.043945 100.391602 L 189.09668 100.467773 L 192.146484 100.535156 L 195.199219 100.59082 L 198.249023 100.634766 L 201.301758 100.669922 L 204.354492 100.696289 L 207.404297 100.710937 L 210.457031 100.716797 L 213.506836 100.710937 L 216.55957 100.696289 L 219.612305 100.669922 L 222.662109 100.634766 L 225.714844 100.59082 L 228.764648 100.535156 L 231.817383 100.467773 L 234.870117 100.391602 L 237.919922 100.306641 " transform="matrix(1.333333,0,0,1.333333,0,0.000000000000014211)"/>
</g>
<g clip-path="url(#clip3)" clip-rule="nonzero">
<path style="fill:none;stroke-width:1.5;stroke-linecap:butt;stroke-linejoin:round;stroke:rgb(12.156863%,46.666667%,70.588237%);stroke-opacity:1;stroke-miterlimit:4;" d="M 42.621094 100.59082 L 45.670898 101.144531 L 48.723633 101.686523 L 51.776367 102.219727 L 54.826172 102.741211 L 57.272461 103.154297 L 57.878906 103.250977 L 60.928711 103.725586 L 63.981445 104.191406 L 67.03418 104.648437 L 70.083984 105.09375 L 73.136719 105.530273 L 76.186523 105.958008 L 79.239258 106.376953 L 81.714844 106.708008 L 82.291992 106.78125 L 85.341797 107.15918 L 88.394531 107.52832 L 91.444336 107.888672 L 94.49707 108.237305 L 97.549805 108.580078 L 100.599609 108.914062 L 103.652344 109.236328 L 106.702148 109.549805 L 109.754883 109.857422 L 112.807617 110.15332 L 113.967773 110.261719 L 115.857422 110.431641 L 118.910156 110.695312 L 121.959961 110.950195 L 125.012695 111.196289 L 128.06543 111.436523 L 131.115234 111.665039 L 134.167969 111.887695 L 137.217773 112.098633 L 140.270508 112.303711 L 143.323242 112.49707 L 146.373047 112.68457 L 149.425781 112.863281 L 152.475586 113.030273 L 155.52832 113.191406 L 158.581055 113.34375 L 161.630859 113.487305 L 164.683594 113.619141 L 167.733398 113.745117 L 169.543945 113.81543 L 170.786133 113.862305 L 173.838867 113.964844 L 176.888672 114.058594 L 179.941406 114.146484 L 182.991211 114.225586 L 186.043945 114.295898 L 189.09668 114.357422 L 192.146484 114.410156 L 195.199219 114.457031 L 198.249023 114.492187 L 201.301758 114.521484 L 204.354492 114.541992 L 207.404297 114.553711 L 210.457031 114.55957 L 213.506836 114.553711 L 216.55957 114.541992 L 219.612305 114.521484 L 222.662109 114.492187 L 225.714844 114.457031 L 228.764648 114.410156 L 231.817383 114.357422 L 234.870117 114.295898 L 237.919922 114.225586 " transform="matrix(1.333333,0,0,1.333333,0,0.000000000000014211)"/>
</g>
<g clip-path="url(#clip4)" clip-rule="nonzero">
<path style="fill:none;stroke-width:1.5;stroke-linecap:butt;stroke-linejoin:round;stroke:rgb(12.156863%,46.666667%,70.588237%);stroke-opacity:1;stroke-miterlimit:4;" d="M 42.621094 114.457031 L 45.670898 114.905273 L 48.723633 115.347656 L 51.776367 115.78125 L 54.826172 116.208984 L 57.878906 116.625 L 60.928711 117.035156 L 63.477539 117.369141 L 63.981445 117.433594 L 67.03418 117.808594 L 70.083984 118.174805 L 73.136719 118.535156 L 76.186523 118.886719 L 79.239258 119.229492 L 82.291992 119.563477 L 85.341797 119.891602 L 88.394531 120.210937 L 91.444336 120.524414 L 94.49707 120.829102 L 95.472656 120.922852 L 97.549805 121.116211 L 100.599609 121.391602 L 103.652344 121.661133 L 106.702148 121.921875 L 109.754883 122.173828 L 112.807617 122.419922 L 115.857422 122.657227 L 118.910156 122.888672 L 121.959961 123.111328 L 125.012695 123.328125 L 128.06543 123.536133 L 131.115234 123.735352 L 134.167969 123.928711 L 137.217773 124.113281 L 140.270508 124.291992 L 143.323242 124.461914 L 143.604492 124.476562 L 146.373047 124.617187 L 149.425781 124.766602 L 152.475586 124.907227 L 155.52832 125.041992 L 158.581055 125.170898 L 161.630859 125.288086 L 164.683594 125.402344 L 167.733398 125.507812 L 170.786133 125.604492 L 173.838867 125.695312 L 176.888672 125.777344 L 179.941406 125.853516 L 182.991211 125.923828 L 186.043945 125.985352 L 189.09668 126.041016 L 192.146484 126.087891 L 195.199219 126.125977 L 198.249023 126.158203 L 201.301758 126.18457 L 204.354492 126.202148 L 207.404297 126.213867 L 210.457031 126.216797 L 213.506836 126.213867 L 216.55957 126.202148 L 219.612305 126.18457 L 222.662109 126.158203 L 225.714844 126.125977 L 228.764648 126.087891 L 231.817383 126.041016 L 234.870117 125.985352 L 237.919922 125.923828 " transform="matrix(1.333333,0,0,1.333333,0,0.000000000000014211)"/>
</g>
<g clip-path="url(#clip5)" clip-rule="nonzero">
<path style="fill:none;stroke-width:1.5;stroke-linecap:butt;stroke-linejoin:round;stroke:rgb(12.156863%,46.666667%,70.588237%);stroke-opacity:1;stroke-miterlimit:4;" d="M 42.621094 126.125977 L 45.670898 126.521484 L 48.723633 126.911133 L 51.776367 127.291992 L 54.826172 127.664062 L 57.878906 128.030273 L 60.928711 128.375977 L 63.981445 128.712891 L 67.03418 129.043945 L 70.083984 129.369141 L 73.136719 129.685547 L 76.186523 129.996094 L 79.239258 130.297852 L 82.291992 130.59375 L 85.341797 130.883789 L 88.394531 131.167969 L 91.444336 131.44043 L 93.070312 131.583984 L 94.49707 131.704102 L 97.549805 131.956055 L 100.599609 132.202148 L 103.652344 132.439453 L 106.702148 132.670898 L 109.754883 132.896484 L 112.807617 133.113281 L 115.857422 133.324219 L 118.910156 133.529297 L 121.959961 133.725586 L 125.012695 133.918945 L 128.06543 134.103516 L 131.115234 134.279297 L 134.167969 134.452148 L 137.217773 134.616211 L 140.270508 134.774414 L 143.323242 134.923828 L 146.373047 135.067383 L 147.9375 135.137695 L 149.425781 135.202148 L 152.475586 135.328125 L 155.52832 135.448242 L 158.581055 135.5625 L 161.630859 135.667969 L 164.683594 135.767578 L 167.733398 135.861328 L 170.786133 135.949219 L 173.838867 136.03125 L 176.888672 136.104492 L 179.941406 136.171875 L 182.991211 136.233398 L 186.043945 136.289062 L 189.09668 136.335938 L 192.146484 136.379883 L 195.199219 136.415039 L 198.249023 136.444336 L 201.301758 136.464844 L 204.354492 136.482422 L 207.404297 136.491211 L 210.457031 136.494141 L 213.506836 136.491211 L 216.55957 136.482422 L 219.612305 136.464844 L 222.662109 136.444336 L 225.714844 136.415039 L 228.764648 136.379883 L 231.817383 136.335938 L 234.870117 136.289062 L 237.919922 136.233398 " transform="matrix(1.333333,0,0,1.333333,0,0.000000000000014211)"/>
</g>
<g clip-path="url(#clip6)" clip-rule="nonzero">
<path style="fill:none;stroke-width:1.5;stroke-linecap:butt;stroke-linejoin:round;stroke:rgb(12.156863%,46.666667%,70.588237%);stroke-opacity:1;stroke-miterlimit:4;" d="M 42.621094 136.415039 L 45.670898 136.766602 L 48.723633 137.112305 L 51.776367 137.452148 L 54.826172 137.783203 L 57.878906 138.111328 L 60.928711 138.430664 L 63.477539 138.691406 L 63.981445 138.741211 L 67.03418 139.037109 L 70.083984 139.327148 L 73.136719 139.611328 L 76.186523 139.889648 L 79.239258 140.15918 L 82.291992 140.425781 L 85.341797 140.683594 L 88.394531 140.935547 L 91.444336 141.18457 L 94.49707 141.421875 L 97.549805 141.65625 L 100.599609 141.884766 L 103.652344 142.104492 L 105.641602 142.245117 L 106.702148 142.318359 L 109.754883 142.520508 L 112.807617 142.716797 L 115.857422 142.904297 L 118.910156 143.088867 L 121.959961 143.267578 L 125.012695 143.4375 L 128.06543 143.604492 L 131.115234 143.762695 L 134.167969 143.917969 L 137.217773 144.064453 L 140.270508 144.208008 L 143.323242 144.342773 L 146.373047 144.47168 L 149.425781 144.594727 L 152.475586 144.711914 L 155.52832 144.823242 L 158.581055 144.928711 L 161.630859 145.02832 L 164.683594 145.12207 L 167.733398 145.209961 L 170.786133 145.291992 L 173.838867 145.365234 L 176.888672 145.435547 L 179.941406 145.5 L 182.991211 145.555664 L 186.043945 145.608398 L 189.09668 145.652344 L 192.146484 145.69043 L 195.199219 145.725586 L 198.249023 145.751953 L 201.301758 145.772461 L 204.354492 145.787109 L 207.404297 145.795898 L 210.457031 145.798828 " transform="matrix(1.333333,0,0,1.333333,0,0.000000000000014211)"/>
</g>
<g clip-path="url(#clip7)" clip-rule="nonzero">
<path style="fill:none;stroke-width:1.5;stroke-linecap:butt;stroke-linejoin:round;stroke:rgb(12.156863%,46.666667%,70.588237%);stroke-opacity:1;stroke-miterlimit:4;" d="M 210.457031 145.798828 L 213.506836 145.795898 L 216.55957 145.787109 L 219.612305 145.772461 L 222.662109 145.751953 L 225.714844 145.725586 L 228.764648 145.69043 L 231.817383 145.652344 L 234.870117 145.608398 L 237.919922 145.555664 " transform="matrix(1.333333,0,0,1.333333,0,0.000000000000014211)"/>
</g>
<g clip-path="url(#clip8)" clip-rule="nonzero">
<path style="fill:none;stroke-width:1.5;stroke-linecap:butt;stroke-linejoin:round;stroke:rgb(12.156863%,46.666667%,70.588237%);stroke-opacity:1;stroke-miterlimit:4;" d="M 42.621094 145.725586 L 43.321289 145.798828 " transform="matrix(1.333333,0,0,1.333333,0,0.000000000000014211)"/>
</g>
<path style="fill:none;stroke-width:0.8;stroke-linecap:square;stroke-linejoin:miter;stroke:rgb(0%,0%,0%);stroke-opacity:1;stroke-miterlimit:4;" d="M 42.621094 145.798828 L 42.621094 7.201172 " transform="matrix(1.333333,0,0,1.333333,0,0.000000000000014211)"/>
<path style="fill:none;stroke-width:0.8;stroke-linecap:square;stroke-linejoin:miter;stroke:rgb(0%,0%,0%);stroke-opacity:1;stroke-miterlimit:4;" d="M 237.919922 145.798828 L 237.919922 7.201172 " transform="matrix(1.333333,0,0,1.333333,0,0.000000000000014211)"/>
<path style="fill:none;stroke-width:0.8;stroke-linecap:square;stroke-linejoin:miter;stroke:rgb(0%,0%,0%);stroke-opacity:1;stroke-miterlimit:4;" d="M 42.621094 145.798828 L 237.919922 145.798828 " transform="matrix(1.333333,0,0,1.333333,0,0.000000000000014211)"/>
<path style="fill:none;stroke-width:0.8;stroke-linecap:square;stroke-linejoin:miter;stroke:rgb(0%,0%,0%);stroke-opacity:1;stroke-miterlimit:4;" d="M 42.621094 7.201172 L 237.919922 7.201172 " transform="matrix(1.333333,0,0,1.333333,0,0.000000000000014211)"/>
</g>
</svg>
