<?xml version="1.0" encoding="UTF-8"?>
<svg xmlns="http://www.w3.org/2000/svg" xmlns:xlink="http://www.w3.org/1999/xlink" width="312.85439" height="244.474996" viewBox="0 0 312.85439 244.474996" version="1.1">
<g id="surface1">
<path style=" stroke:none;fill-rule:nonzero;fill:rgb(100%,100%,100%);fill-opacity:1;" d="M 0 244.476562 L 312.855469 244.476562 L 312.855469 0 L 0 0 Z M 0 244.476562 "/>
<path style=" stroke:none;fill-rule:nonzero;fill:rgb(100%,100%,100%);fill-opacity:1;" d="M 40.136719 194.398438 L 300.539062 194.398438 L 300.539062 9.601562 L 40.136719 9.601562 Z M 40.136719 194.398438 "/>
<path style="fill:none;stroke-width:0.8;stroke-linecap:butt;stroke-linejoin:round;stroke:rgb(0%,0%,0%);stroke-opacity:1;stroke-miterlimit:4;" d="M -0.000904083 -0.00117493 L -0.000904083 3.499802 " transform="matrix(1.333333,0,0,1.333333,51.973862,194.400004)"/>
<path style=" stroke:none;fill-rule:nonzero;fill:rgb(0%,0%,0%);fill-opacity:1;" d="M 51.96875 205.011719 C 51.292969 205.011719 50.785156 205.34375 50.441406 206.011719 C 50.101562 206.675781 49.933594 207.675781 49.933594 209.015625 C 49.933594 210.347656 50.101562 211.347656 50.441406 212.011719 C 50.785156 212.679688 51.292969 213.011719 51.96875 213.011719 C 52.652344 213.011719 53.164062 212.679688 53.503906 212.011719 C 53.84375 211.347656 54.015625 210.347656 54.015625 209.015625 C 54.015625 207.675781 53.84375 206.675781 53.503906 206.011719 C 53.164062 205.34375 52.652344 205.011719 51.96875 205.011719 Z M 51.96875 203.96875 C 53.058594 203.96875 53.894531 204.398438 54.46875 205.261719 C 55.042969 206.125 55.332031 207.375 55.332031 209.015625 C 55.332031 210.652344 55.042969 211.898438 54.46875 212.761719 C 53.894531 213.625 53.058594 214.054688 51.96875 214.054688 C 50.878906 214.054688 50.050781 213.625 49.472656 212.761719 C 48.898438 211.898438 48.613281 210.652344 48.613281 209.015625 C 48.613281 207.375 48.898438 206.125 49.472656 205.261719 C 50.050781 204.398438 50.878906 203.96875 51.96875 203.96875 Z M 51.96875 203.96875 "/>
<path style="fill:none;stroke-width:0.8;stroke-linecap:butt;stroke-linejoin:round;stroke:rgb(0%,0%,0%);stroke-opacity:1;stroke-miterlimit:4;" d="M -0.000968933 -0.00117493 L -0.000968933 3.499802 " transform="matrix(1.333333,0,0,1.333333,112.673167,194.400004)"/>
<path style=" stroke:none;fill-rule:nonzero;fill:rgb(0%,0%,0%);fill-opacity:1;" d="M 105.84375 212.757812 L 107.992188 212.757812 L 107.992188 205.339844 L 105.65625 205.808594 L 105.65625 204.613281 L 107.980469 204.144531 L 109.292969 204.144531 L 109.292969 212.757812 L 111.441406 212.757812 L 111.441406 213.863281 L 105.84375 213.863281 Z M 105.84375 212.757812 "/>
<path style=" stroke:none;fill-rule:nonzero;fill:rgb(0%,0%,0%);fill-opacity:1;" d="M 116.910156 205.011719 C 116.234375 205.011719 115.726562 205.34375 115.382812 206.011719 C 115.042969 206.675781 114.871094 207.675781 114.871094 209.015625 C 114.871094 210.347656 115.042969 211.347656 115.382812 212.011719 C 115.726562 212.679688 116.234375 213.011719 116.910156 213.011719 C 117.59375 213.011719 118.101562 212.679688 118.445312 212.011719 C 118.785156 211.347656 118.957031 210.347656 118.957031 209.015625 C 118.957031 207.675781 118.785156 206.675781 118.445312 206.011719 C 118.101562 205.34375 117.59375 205.011719 116.910156 205.011719 Z M 116.910156 203.96875 C 118 203.96875 118.832031 204.398438 119.410156 205.261719 C 119.984375 206.125 120.269531 207.375 120.269531 209.015625 C 120.269531 210.652344 119.984375 211.898438 119.410156 212.761719 C 118.832031 213.625 118 214.054688 116.910156 214.054688 C 115.820312 214.054688 114.988281 213.625 114.414062 212.761719 C 113.839844 211.898438 113.550781 210.652344 113.550781 209.015625 C 113.550781 207.375 113.839844 206.125 114.414062 205.261719 C 114.988281 204.398438 115.820312 203.96875 116.910156 203.96875 Z M 116.910156 203.96875 "/>
<path style="fill:none;stroke-width:0.8;stroke-linecap:butt;stroke-linejoin:round;stroke:rgb(0%,0%,0%);stroke-opacity:1;stroke-miterlimit:4;" d="M -0.00102234 -0.00117493 L -0.00102234 3.499802 " transform="matrix(1.333333,0,0,1.333333,173.372457,194.400004)"/>
<path style=" stroke:none;fill-rule:nonzero;fill:rgb(0%,0%,0%);fill-opacity:1;" d="M 167.449219 212.757812 L 172.035156 212.757812 L 172.035156 213.863281 L 165.867188 213.863281 L 165.867188 212.757812 C 166.363281 212.242188 167.042969 211.546875 167.90625 210.679688 C 168.769531 209.808594 169.308594 209.246094 169.53125 208.992188 C 169.953125 208.523438 170.246094 208.121094 170.410156 207.792969 C 170.582031 207.464844 170.664062 207.144531 170.664062 206.828125 C 170.664062 206.308594 170.484375 205.890625 170.121094 205.566406 C 169.757812 205.238281 169.285156 205.074219 168.703125 205.074219 C 168.292969 205.074219 167.855469 205.148438 167.398438 205.289062 C 166.941406 205.433594 166.453125 205.648438 165.929688 205.941406 L 165.929688 204.613281 C 166.460938 204.398438 166.953125 204.238281 167.414062 204.132812 C 167.875 204.023438 168.296875 203.96875 168.679688 203.96875 C 169.6875 203.96875 170.488281 204.222656 171.085938 204.726562 C 171.6875 205.226562 171.984375 205.898438 171.984375 206.742188 C 171.984375 207.140625 171.910156 207.519531 171.761719 207.878906 C 171.613281 208.234375 171.339844 208.65625 170.941406 209.144531 C 170.835938 209.269531 170.488281 209.632812 169.90625 210.234375 C 169.328125 210.835938 168.507812 211.679688 167.449219 212.757812 Z M 167.449219 212.757812 "/>
<path style=" stroke:none;fill-rule:nonzero;fill:rgb(0%,0%,0%);fill-opacity:1;" d="M 177.609375 205.011719 C 176.933594 205.011719 176.425781 205.34375 176.082031 206.011719 C 175.742188 206.675781 175.570312 207.675781 175.570312 209.015625 C 175.570312 210.347656 175.742188 211.347656 176.082031 212.011719 C 176.425781 212.679688 176.933594 213.011719 177.609375 213.011719 C 178.292969 213.011719 178.804688 212.679688 179.144531 212.011719 C 179.484375 211.347656 179.65625 210.347656 179.65625 209.015625 C 179.65625 207.675781 179.484375 206.675781 179.144531 206.011719 C 178.804688 205.34375 178.292969 205.011719 177.609375 205.011719 Z M 177.609375 203.96875 C 178.699219 203.96875 179.53125 204.398438 180.109375 205.261719 C 180.683594 206.125 180.96875 207.375 180.96875 209.015625 C 180.96875 210.652344 180.683594 211.898438 180.109375 212.761719 C 179.53125 213.625 178.699219 214.054688 177.609375 214.054688 C 176.519531 214.054688 175.6875 213.625 175.113281 212.761719 C 174.539062 211.898438 174.25 210.652344 174.25 209.015625 C 174.25 207.375 174.539062 206.125 175.113281 205.261719 C 175.6875 204.398438 176.519531 203.96875 177.609375 203.96875 Z M 177.609375 203.96875 "/>
<path style="fill:none;stroke-width:0.8;stroke-linecap:butt;stroke-linejoin:round;stroke:rgb(0%,0%,0%);stroke-opacity:1;stroke-miterlimit:4;" d="M -0.00108337 -0.00117493 L -0.00108337 3.499802 " transform="matrix(1.333333,0,0,1.333333,234.071757,194.400004)"/>
<path style=" stroke:none;fill-rule:nonzero;fill:rgb(0%,0%,0%);fill-opacity:1;" d="M 231 208.621094 C 231.628906 208.757812 232.117188 209.039062 232.472656 209.464844 C 232.824219 209.890625 233.003906 210.414062 233.003906 211.039062 C 233.003906 211.996094 232.671875 212.742188 232.011719 213.265625 C 231.355469 213.792969 230.417969 214.054688 229.199219 214.054688 C 228.792969 214.054688 228.375 214.015625 227.941406 213.933594 C 227.511719 213.851562 227.066406 213.730469 226.605469 213.570312 L 226.605469 212.300781 C 226.96875 212.515625 227.367188 212.675781 227.800781 212.785156 C 228.234375 212.890625 228.691406 212.945312 229.164062 212.945312 C 229.988281 212.945312 230.613281 212.785156 231.046875 212.457031 C 231.480469 212.132812 231.695312 211.660156 231.695312 211.039062 C 231.695312 210.464844 231.492188 210.019531 231.09375 209.695312 C 230.691406 209.371094 230.132812 209.210938 229.417969 209.210938 L 228.285156 209.210938 L 228.285156 208.128906 L 229.46875 208.128906 C 230.117188 208.128906 230.609375 208 230.953125 207.742188 C 231.296875 207.484375 231.46875 207.109375 231.46875 206.625 C 231.46875 206.125 231.289062 205.742188 230.9375 205.476562 C 230.582031 205.210938 230.078125 205.074219 229.417969 205.074219 C 229.054688 205.074219 228.667969 205.113281 228.257812 205.195312 C 227.84375 205.273438 227.390625 205.390625 226.898438 205.554688 L 226.898438 204.386719 C 227.398438 204.246094 227.863281 204.140625 228.300781 204.074219 C 228.738281 204.003906 229.148438 203.96875 229.535156 203.96875 C 230.53125 203.96875 231.324219 204.195312 231.902344 204.648438 C 232.484375 205.101562 232.777344 205.714844 232.777344 206.488281 C 232.777344 207.027344 232.621094 207.480469 232.3125 207.851562 C 232.003906 208.222656 231.566406 208.480469 231 208.621094 Z M 231 208.621094 "/>
<path style=" stroke:none;fill-rule:nonzero;fill:rgb(0%,0%,0%);fill-opacity:1;" d="M 238.308594 205.011719 C 237.632812 205.011719 237.125 205.34375 236.78125 206.011719 C 236.441406 206.675781 236.273438 207.675781 236.273438 209.015625 C 236.273438 210.347656 236.441406 211.347656 236.78125 212.011719 C 237.125 212.679688 237.632812 213.011719 238.308594 213.011719 C 238.992188 213.011719 239.503906 212.679688 239.84375 212.011719 C 240.183594 211.347656 240.355469 210.347656 240.355469 209.015625 C 240.355469 207.675781 240.183594 206.675781 239.84375 206.011719 C 239.503906 205.34375 238.992188 205.011719 238.308594 205.011719 Z M 238.308594 203.96875 C 239.398438 203.96875 240.230469 204.398438 240.808594 205.261719 C 241.382812 206.125 241.667969 207.375 241.667969 209.015625 C 241.667969 210.652344 241.382812 211.898438 240.808594 212.761719 C 240.230469 213.625 239.398438 214.054688 238.308594 214.054688 C 237.21875 214.054688 236.386719 213.625 235.8125 212.761719 C 235.238281 211.898438 234.949219 210.652344 234.949219 209.015625 C 234.949219 207.375 235.238281 206.125 235.8125 205.261719 C 236.386719 204.398438 237.21875 203.96875 238.308594 203.96875 Z M 238.308594 203.96875 "/>
<path style="fill:none;stroke-width:0.8;stroke-linecap:butt;stroke-linejoin:round;stroke:rgb(0%,0%,0%);stroke-opacity:1;stroke-miterlimit:4;" d="M -0.00114441 -0.00117493 L -0.00114441 3.499802 " transform="matrix(1.333333,0,0,1.333333,294.771057,194.400004)"/>
<path style=" stroke:none;fill-rule:nonzero;fill:rgb(0%,0%,0%);fill-opacity:1;" d="M 291.328125 205.289062 L 288.007812 210.480469 L 291.328125 210.480469 Z M 290.980469 204.144531 L 292.636719 204.144531 L 292.636719 210.480469 L 294.023438 210.480469 L 294.023438 211.574219 L 292.636719 211.574219 L 292.636719 213.863281 L 291.328125 213.863281 L 291.328125 211.574219 L 286.941406 211.574219 L 286.941406 210.304688 Z M 290.980469 204.144531 "/>
<path style=" stroke:none;fill-rule:nonzero;fill:rgb(0%,0%,0%);fill-opacity:1;" d="M 299.007812 205.011719 C 298.332031 205.011719 297.824219 205.34375 297.480469 206.011719 C 297.140625 206.675781 296.972656 207.675781 296.972656 209.015625 C 296.972656 210.347656 297.140625 211.347656 297.480469 212.011719 C 297.824219 212.679688 298.332031 213.011719 299.007812 213.011719 C 299.691406 213.011719 300.203125 212.679688 300.542969 212.011719 C 300.882812 211.347656 301.054688 210.347656 301.054688 209.015625 C 301.054688 207.675781 300.882812 206.675781 300.542969 206.011719 C 300.203125 205.34375 299.691406 205.011719 299.007812 205.011719 Z M 299.007812 203.96875 C 300.097656 203.96875 300.929688 204.398438 301.507812 205.261719 C 302.082031 206.125 302.367188 207.375 302.367188 209.015625 C 302.367188 210.652344 302.082031 211.898438 301.507812 212.761719 C 300.929688 213.625 300.097656 214.054688 299.007812 214.054688 C 297.917969 214.054688 297.085938 213.625 296.511719 212.761719 C 295.9375 211.898438 295.648438 210.652344 295.648438 209.015625 C 295.648438 207.375 295.9375 206.125 296.511719 205.261719 C 297.085938 204.398438 297.917969 203.96875 299.007812 203.96875 Z M 299.007812 203.96875 "/>
<path style=" stroke:none;fill-rule:nonzero;fill:rgb(0%,0%,0%);fill-opacity:1;" d="M 157.71875 222.738281 L 157.71875 224.808594 L 160.183594 224.808594 L 160.183594 225.742188 L 157.71875 225.742188 L 157.71875 229.699219 C 157.71875 230.292969 157.800781 230.675781 157.960938 230.847656 C 158.125 231.015625 158.457031 231.101562 158.957031 231.101562 L 160.183594 231.101562 L 160.183594 232.101562 L 158.957031 232.101562 C 158.03125 232.101562 157.390625 231.929688 157.039062 231.585938 C 156.6875 231.238281 156.511719 230.609375 156.511719 229.699219 L 156.511719 225.742188 L 155.632812 225.742188 L 155.632812 224.808594 L 156.511719 224.808594 L 156.511719 222.738281 Z M 157.71875 222.738281 "/>
<path style=" stroke:none;fill-rule:nonzero;fill:rgb(0%,0%,0%);fill-opacity:1;" d="M 161.761719 224.808594 L 162.957031 224.808594 L 162.957031 232.101562 L 161.761719 232.101562 Z M 161.761719 221.972656 L 162.957031 221.972656 L 162.957031 223.488281 L 161.761719 223.488281 Z M 161.761719 221.972656 "/>
<path style=" stroke:none;fill-rule:nonzero;fill:rgb(0%,0%,0%);fill-opacity:1;" d="M 171.140625 226.210938 C 171.441406 225.671875 171.800781 225.273438 172.214844 225.019531 C 172.632812 224.761719 173.125 224.636719 173.6875 224.636719 C 174.445312 224.636719 175.035156 224.902344 175.445312 225.433594 C 175.859375 225.964844 176.066406 226.71875 176.066406 227.699219 L 176.066406 232.101562 L 174.859375 232.101562 L 174.859375 227.738281 C 174.859375 227.039062 174.734375 226.523438 174.488281 226.183594 C 174.242188 225.847656 173.863281 225.675781 173.355469 225.675781 C 172.734375 225.675781 172.246094 225.882812 171.882812 226.296875 C 171.523438 226.707031 171.34375 227.269531 171.34375 227.980469 L 171.34375 232.101562 L 170.140625 232.101562 L 170.140625 227.738281 C 170.140625 227.035156 170.015625 226.515625 169.769531 226.179688 C 169.523438 225.84375 169.140625 225.675781 168.621094 225.675781 C 168.011719 225.675781 167.523438 225.882812 167.164062 226.296875 C 166.804688 226.710938 166.621094 227.273438 166.621094 227.980469 L 166.621094 232.101562 L 165.417969 232.101562 L 165.417969 224.808594 L 166.621094 224.808594 L 166.621094 225.945312 C 166.898438 225.496094 167.222656 225.167969 167.605469 224.953125 C 167.988281 224.742188 168.441406 224.636719 168.964844 224.636719 C 169.496094 224.636719 169.949219 224.769531 170.320312 225.039062 C 170.691406 225.308594 170.964844 225.699219 171.140625 226.210938 Z M 171.140625 226.210938 "/>
<path style=" stroke:none;fill-rule:nonzero;fill:rgb(0%,0%,0%);fill-opacity:1;" d="M 184.691406 228.15625 L 184.691406 228.742188 L 179.183594 228.742188 C 179.234375 229.566406 179.484375 230.195312 179.929688 230.628906 C 180.371094 231.058594 180.992188 231.273438 181.785156 231.273438 C 182.246094 231.273438 182.691406 231.21875 183.125 231.105469 C 183.554688 230.992188 183.984375 230.824219 184.410156 230.597656 L 184.410156 231.730469 C 183.980469 231.914062 183.539062 232.050781 183.089844 232.148438 C 182.636719 232.242188 182.179688 232.292969 181.714844 232.292969 C 180.550781 232.292969 179.628906 231.953125 178.949219 231.277344 C 178.273438 230.597656 177.933594 229.683594 177.933594 228.527344 C 177.933594 227.335938 178.253906 226.386719 178.898438 225.6875 C 179.542969 224.984375 180.414062 224.636719 181.507812 224.636719 C 182.488281 224.636719 183.261719 224.953125 183.835938 225.582031 C 184.40625 226.214844 184.691406 227.070312 184.691406 228.15625 Z M 183.492188 227.804688 C 183.484375 227.148438 183.300781 226.628906 182.941406 226.238281 C 182.585938 225.847656 182.109375 225.648438 181.519531 225.648438 C 180.851562 225.648438 180.316406 225.839844 179.914062 226.214844 C 179.515625 226.59375 179.28125 227.125 179.222656 227.8125 Z M 183.492188 227.804688 "/>
<path style="fill:none;stroke-width:0.8;stroke-linecap:butt;stroke-linejoin:round;stroke:rgb(0%,0%,0%);stroke-opacity:1;stroke-miterlimit:4;" d="M -0.000585556 -0.00012207 L -3.498632 -0.00012207 " transform="matrix(1.333333,0,0,1.333333,40.137499,186.000163)"/>
<path style=" stroke:none;fill-rule:nonzero;fill:rgb(0%,0%,0%);fill-opacity:1;" d="M 13.835938 182.210938 C 13.160156 182.210938 12.652344 182.546875 12.308594 183.210938 C 11.96875 183.875 11.800781 184.878906 11.800781 186.214844 C 11.800781 187.546875 11.96875 188.546875 12.308594 189.214844 C 12.652344 189.878906 13.160156 190.214844 13.835938 190.214844 C 14.519531 190.214844 15.03125 189.878906 15.371094 189.214844 C 15.710938 188.546875 15.882812 187.546875 15.882812 186.214844 C 15.882812 184.878906 15.710938 183.875 15.371094 183.210938 C 15.03125 182.546875 14.519531 182.210938 13.835938 182.210938 Z M 13.835938 181.171875 C 14.929688 181.171875 15.761719 181.601562 16.335938 182.464844 C 16.910156 183.324219 17.199219 184.574219 17.199219 186.214844 C 17.199219 187.851562 16.910156 189.101562 16.335938 189.964844 C 15.761719 190.824219 14.929688 191.253906 13.835938 191.253906 C 12.75 191.253906 11.917969 190.824219 11.339844 189.964844 C 10.765625 189.101562 10.480469 187.851562 10.480469 186.214844 C 10.480469 184.574219 10.765625 183.324219 11.339844 182.464844 C 11.917969 181.601562 12.75 181.171875 13.835938 181.171875 Z M 13.835938 181.171875 "/>
<path style=" stroke:none;fill-rule:nonzero;fill:rgb(0%,0%,0%);fill-opacity:1;" d="M 19.507812 189.410156 L 20.882812 189.410156 L 20.882812 191.066406 L 19.507812 191.066406 Z M 19.507812 189.410156 "/>
<path style=" stroke:none;fill-rule:nonzero;fill:rgb(0%,0%,0%);fill-opacity:1;" d="M 26.558594 182.210938 C 25.882812 182.210938 25.375 182.546875 25.03125 183.210938 C 24.691406 183.875 24.519531 184.878906 24.519531 186.214844 C 24.519531 187.546875 24.691406 188.546875 25.03125 189.214844 C 25.375 189.878906 25.882812 190.214844 26.558594 190.214844 C 27.242188 190.214844 27.75 189.878906 28.09375 189.214844 C 28.433594 188.546875 28.605469 187.546875 28.605469 186.214844 C 28.605469 184.878906 28.433594 183.875 28.09375 183.210938 C 27.75 182.546875 27.242188 182.210938 26.558594 182.210938 Z M 26.558594 181.171875 C 27.648438 181.171875 28.480469 181.601562 29.058594 182.464844 C 29.632812 183.324219 29.917969 184.574219 29.917969 186.214844 C 29.917969 187.851562 29.632812 189.101562 29.058594 189.964844 C 28.480469 190.824219 27.648438 191.253906 26.558594 191.253906 C 25.46875 191.253906 24.636719 190.824219 24.0625 189.964844 C 23.488281 189.101562 23.199219 187.851562 23.199219 186.214844 C 23.199219 184.574219 23.488281 183.324219 24.0625 182.464844 C 24.636719 181.601562 25.46875 181.171875 26.558594 181.171875 Z M 26.558594 181.171875 "/>
<path style="fill:none;stroke-width:0.8;stroke-linecap:butt;stroke-linejoin:round;stroke:rgb(0%,0%,0%);stroke-opacity:1;stroke-miterlimit:4;" d="M -0.000585556 -0.0000762939 L -3.498632 -0.0000762939 " transform="matrix(1.333333,0,0,1.333333,40.137499,130.000102)"/>
<path style=" stroke:none;fill-rule:nonzero;fill:rgb(0%,0%,0%);fill-opacity:1;" d="M 13.835938 126.210938 C 13.160156 126.210938 12.652344 126.542969 12.308594 127.210938 C 11.96875 127.875 11.800781 128.878906 11.800781 130.214844 C 11.800781 131.546875 11.96875 132.546875 12.308594 133.214844 C 12.652344 133.878906 13.160156 134.214844 13.835938 134.214844 C 14.519531 134.214844 15.03125 133.878906 15.371094 133.214844 C 15.710938 132.546875 15.882812 131.546875 15.882812 130.214844 C 15.882812 128.878906 15.710938 127.875 15.371094 127.210938 C 15.03125 126.542969 14.519531 126.210938 13.835938 126.210938 Z M 13.835938 125.167969 C 14.929688 125.167969 15.761719 125.601562 16.335938 126.464844 C 16.910156 127.324219 17.199219 128.574219 17.199219 130.214844 C 17.199219 131.851562 16.910156 133.101562 16.335938 133.964844 C 15.761719 134.824219 14.929688 135.253906 13.835938 135.253906 C 12.75 135.253906 11.917969 134.824219 11.339844 133.964844 C 10.765625 133.101562 10.480469 131.851562 10.480469 130.214844 C 10.480469 128.574219 10.765625 127.324219 11.339844 126.464844 C 11.917969 125.601562 12.75 125.167969 13.835938 125.167969 Z M 13.835938 125.167969 "/>
<path style=" stroke:none;fill-rule:nonzero;fill:rgb(0%,0%,0%);fill-opacity:1;" d="M 19.507812 133.410156 L 20.882812 133.410156 L 20.882812 135.066406 L 19.507812 135.066406 Z M 19.507812 133.410156 "/>
<path style=" stroke:none;fill-rule:nonzero;fill:rgb(0%,0%,0%);fill-opacity:1;" d="M 23.976562 133.960938 L 26.125 133.960938 L 26.125 126.542969 L 23.785156 127.011719 L 23.785156 125.8125 L 26.109375 125.34375 L 27.425781 125.34375 L 27.425781 133.960938 L 29.574219 133.960938 L 29.574219 135.066406 L 23.976562 135.066406 Z M 23.976562 133.960938 "/>
<path style="fill:none;stroke-width:0.8;stroke-linecap:butt;stroke-linejoin:round;stroke:rgb(0%,0%,0%);stroke-opacity:1;stroke-miterlimit:4;" d="M -0.000585556 -0.000038147 L -3.498632 -0.000038147 " transform="matrix(1.333333,0,0,1.333333,40.137499,74.000051)"/>
<path style=" stroke:none;fill-rule:nonzero;fill:rgb(0%,0%,0%);fill-opacity:1;" d="M 13.835938 70.210938 C 13.160156 70.210938 12.652344 70.542969 12.308594 71.210938 C 11.96875 71.875 11.800781 72.878906 11.800781 74.214844 C 11.800781 75.546875 11.96875 76.546875 12.308594 77.214844 C 12.652344 77.878906 13.160156 78.214844 13.835938 78.214844 C 14.519531 78.214844 15.03125 77.878906 15.371094 77.214844 C 15.710938 76.546875 15.882812 75.546875 15.882812 74.214844 C 15.882812 72.878906 15.710938 71.875 15.371094 71.210938 C 15.03125 70.542969 14.519531 70.210938 13.835938 70.210938 Z M 13.835938 69.167969 C 14.929688 69.167969 15.761719 69.601562 16.335938 70.464844 C 16.910156 71.324219 17.199219 72.574219 17.199219 74.214844 C 17.199219 75.851562 16.910156 77.101562 16.335938 77.964844 C 15.761719 78.824219 14.929688 79.253906 13.835938 79.253906 C 12.75 79.253906 11.917969 78.824219 11.339844 77.964844 C 10.765625 77.101562 10.480469 75.851562 10.480469 74.214844 C 10.480469 72.574219 10.765625 71.324219 11.339844 70.464844 C 11.917969 69.601562 12.75 69.167969 13.835938 69.167969 Z M 13.835938 69.167969 "/>
<path style=" stroke:none;fill-rule:nonzero;fill:rgb(0%,0%,0%);fill-opacity:1;" d="M 19.507812 77.410156 L 20.882812 77.410156 L 20.882812 79.066406 L 19.507812 79.066406 Z M 19.507812 77.410156 "/>
<path style=" stroke:none;fill-rule:nonzero;fill:rgb(0%,0%,0%);fill-opacity:1;" d="M 24.878906 77.960938 L 29.46875 77.960938 L 29.46875 79.066406 L 23.296875 79.066406 L 23.296875 77.960938 C 23.796875 77.441406 24.476562 76.75 25.339844 75.878906 C 26.199219 75.007812 26.742188 74.449219 26.964844 74.195312 C 27.382812 73.722656 27.675781 73.324219 27.84375 72.996094 C 28.011719 72.667969 28.097656 72.34375 28.097656 72.027344 C 28.097656 71.511719 27.914062 71.089844 27.550781 70.765625 C 27.191406 70.4375 26.71875 70.277344 26.136719 70.277344 C 25.722656 70.277344 25.289062 70.347656 24.828125 70.492188 C 24.371094 70.632812 23.882812 70.851562 23.363281 71.144531 L 23.363281 69.8125 C 23.890625 69.601562 24.386719 69.441406 24.847656 69.332031 C 25.308594 69.222656 25.730469 69.167969 26.109375 69.167969 C 27.117188 69.167969 27.921875 69.421875 28.519531 69.925781 C 29.117188 70.429688 29.417969 71.101562 29.417969 71.941406 C 29.417969 72.34375 29.34375 72.722656 29.191406 73.082031 C 29.042969 73.4375 28.769531 73.859375 28.375 74.34375 C 28.265625 74.472656 27.921875 74.835938 27.339844 75.4375 C 26.757812 76.039062 25.9375 76.878906 24.878906 77.960938 Z M 24.878906 77.960938 "/>
<path style="fill:none;stroke-width:0.8;stroke-linecap:butt;stroke-linejoin:round;stroke:rgb(0%,0%,0%);stroke-opacity:1;stroke-miterlimit:4;" d="M -0.000585556 -0.000000000000010658 L -3.498632 -0.000000000000010658 " transform="matrix(1.333333,0,0,1.333333,40.137499,18)"/>
<path style=" stroke:none;fill-rule:nonzero;fill:rgb(0%,0%,0%);fill-opacity:1;" d="M 13.835938 14.210938 C 13.160156 14.210938 12.652344 14.542969 12.308594 15.210938 C 11.96875 15.875 11.800781 16.878906 11.800781 18.214844 C 11.800781 19.546875 11.96875 20.546875 12.308594 21.214844 C 12.652344 21.878906 13.160156 22.214844 13.835938 22.214844 C 14.519531 22.214844 15.03125 21.878906 15.371094 21.214844 C 15.710938 20.546875 15.882812 19.546875 15.882812 18.214844 C 15.882812 16.878906 15.710938 15.875 15.371094 15.210938 C 15.03125 14.542969 14.519531 14.210938 13.835938 14.210938 Z M 13.835938 13.167969 C 14.929688 13.167969 15.761719 13.601562 16.335938 14.464844 C 16.910156 15.324219 17.199219 16.574219 17.199219 18.214844 C 17.199219 19.851562 16.910156 21.101562 16.335938 21.964844 C 15.761719 22.824219 14.929688 23.253906 13.835938 23.253906 C 12.75 23.253906 11.917969 22.824219 11.339844 21.964844 C 10.765625 21.101562 10.480469 19.851562 10.480469 18.214844 C 10.480469 16.574219 10.765625 15.324219 11.339844 14.464844 C 11.917969 13.601562 12.75 13.167969 13.835938 13.167969 Z M 13.835938 13.167969 "/>
<path style=" stroke:none;fill-rule:nonzero;fill:rgb(0%,0%,0%);fill-opacity:1;" d="M 19.507812 21.410156 L 20.882812 21.410156 L 20.882812 23.066406 L 19.507812 23.066406 Z M 19.507812 21.410156 "/>
<path style=" stroke:none;fill-rule:nonzero;fill:rgb(0%,0%,0%);fill-opacity:1;" d="M 27.730469 17.824219 C 28.359375 17.957031 28.851562 18.238281 29.203125 18.664062 C 29.558594 19.089844 29.734375 19.617188 29.734375 20.242188 C 29.734375 21.199219 29.40625 21.941406 28.746094 22.46875 C 28.085938 22.992188 27.148438 23.253906 25.933594 23.253906 C 25.527344 23.253906 25.109375 23.214844 24.675781 23.132812 C 24.242188 23.054688 23.796875 22.933594 23.339844 22.773438 L 23.339844 21.503906 C 23.703125 21.714844 24.101562 21.875 24.535156 21.984375 C 24.96875 22.09375 25.421875 22.148438 25.894531 22.148438 C 26.71875 22.148438 27.347656 21.984375 27.78125 21.660156 C 28.210938 21.335938 28.425781 20.863281 28.425781 20.242188 C 28.425781 19.667969 28.226562 19.21875 27.824219 18.898438 C 27.425781 18.574219 26.867188 18.410156 26.152344 18.410156 L 25.015625 18.410156 L 25.015625 17.332031 L 26.203125 17.332031 C 26.847656 17.332031 27.34375 17.199219 27.6875 16.941406 C 28.027344 16.683594 28.199219 16.3125 28.199219 15.824219 C 28.199219 15.328125 28.023438 14.945312 27.667969 14.679688 C 27.316406 14.410156 26.808594 14.277344 26.152344 14.277344 C 25.789062 14.277344 25.402344 14.316406 24.988281 14.394531 C 24.578125 14.472656 24.125 14.59375 23.628906 14.757812 L 23.628906 13.585938 C 24.128906 13.449219 24.597656 13.34375 25.035156 13.273438 C 25.46875 13.203125 25.882812 13.167969 26.265625 13.167969 C 27.265625 13.167969 28.054688 13.398438 28.636719 13.851562 C 29.21875 14.304688 29.507812 14.917969 29.507812 15.6875 C 29.507812 16.226562 29.355469 16.683594 29.046875 17.054688 C 28.738281 17.425781 28.300781 17.679688 27.730469 17.824219 Z M 27.730469 17.824219 "/>
<path style="fill:none;stroke-width:1.5;stroke-linecap:square;stroke-linejoin:round;stroke:rgb(12.156863%,46.666667%,70.588237%);stroke-opacity:1;stroke-miterlimit:4;" d="M 38.979492 118.5 L 43.532227 119.548828 L 48.084961 120.547852 L 52.637695 121.494141 L 57.19043 122.396484 L 61.743164 123.251953 L 66.295898 124.063477 L 70.848633 124.833984 L 75.401367 125.569336 L 79.951172 126.263672 L 84.503906 126.925781 L 89.056641 127.555664 L 93.609375 128.15332 L 98.162109 128.71875 L 102.714844 129.257812 L 107.267578 129.770508 L 111.820312 130.256836 L 116.373047 130.719727 L 120.925781 131.15918 L 125.475586 131.575195 L 130.02832 131.970703 L 134.581055 132.348633 L 139.133789 132.706055 L 143.686523 133.045898 L 148.239258 133.368164 L 152.791992 133.675781 L 157.344727 133.96582 L 161.897461 134.244141 L 166.450195 134.504883 L 171 134.756836 L 175.552734 134.994141 L 180.105469 135.216797 L 184.658203 135.433594 L 189.210938 135.635742 L 193.763672 135.829102 L 198.316406 136.013672 L 202.869141 136.186523 L 207.421875 136.353516 L 211.974609 136.508789 L 216.524414 136.658203 " transform="matrix(1.333333,0,0,1.333333,0,0.000000000000014211)"/>
<path style="fill:none;stroke-width:1.5;stroke-linecap:square;stroke-linejoin:round;stroke:rgb(100%,49.803922%,5.490196%);stroke-opacity:1;stroke-miterlimit:4;" d="M 38.979492 97.5 L 43.532227 101.701172 L 48.084961 105.480469 L 52.637695 108.881836 L 57.19043 111.943359 L 61.743164 114.700195 L 66.295898 117.178711 L 70.848633 119.411133 L 75.401367 121.420898 L 79.951172 123.228516 L 84.503906 124.854492 L 89.056641 126.319336 L 93.609375 127.637695 L 98.162109 128.824219 L 102.714844 129.890625 L 107.267578 130.851562 L 111.820312 131.71875 L 116.373047 132.495117 L 120.925781 133.195312 L 125.475586 133.825195 L 130.02832 134.393555 L 134.581055 134.90332 L 139.133789 135.363281 L 143.686523 135.776367 L 148.239258 136.151367 L 152.791992 136.485352 L 157.344727 136.787109 L 161.897461 137.056641 L 166.450195 137.302734 L 171 137.522461 L 175.552734 137.71875 L 180.105469 137.897461 L 184.658203 138.058594 L 189.210938 138.202148 L 193.763672 138.331055 L 198.316406 138.448242 L 202.869141 138.553711 L 207.421875 138.647461 L 211.974609 138.732422 L 216.524414 138.811523 " transform="matrix(1.333333,0,0,1.333333,0,0.000000000000014211)"/>
<path style="fill:none;stroke-width:1.5;stroke-linecap:square;stroke-linejoin:round;stroke:rgb(17.254902%,62.7451%,17.254902%);stroke-opacity:1;stroke-miterlimit:4;" d="M 38.979492 55.5 L 43.532227 72.298828 L 48.084961 85.740234 L 52.637695 96.492187 L 57.19043 105.09375 L 61.743164 111.975586 L 66.295898 117.480469 L 70.848633 121.883789 L 75.401367 125.408203 L 79.951172 128.226562 L 84.503906 130.479492 L 89.056641 132.28418 L 93.609375 133.728516 L 98.162109 134.882812 L 102.714844 135.805664 L 107.267578 136.543945 L 111.820312 137.135742 L 116.373047 137.607422 L 120.925781 137.988281 L 125.475586 138.290039 L 130.02832 138.530273 L 134.581055 138.726562 L 139.133789 138.878906 L 143.686523 139.004883 L 148.239258 139.104492 L 152.791992 139.183594 L 157.344727 139.245117 L 161.897461 139.297852 L 166.450195 139.338867 L 171 139.371094 L 175.552734 139.397461 L 180.105469 139.417969 L 189.210938 139.447266 L 193.763672 139.458984 L 198.316406 139.464844 L 202.869141 139.473633 L 207.421875 139.479492 L 211.974609 139.482422 L 216.524414 139.485352 " transform="matrix(1.333333,0,0,1.333333,0,0.000000000000014211)"/>
<path style="fill:none;stroke-width:1.5;stroke-linecap:square;stroke-linejoin:round;stroke:rgb(83.92157%,15.294118%,15.686275%);stroke-opacity:1;stroke-miterlimit:4;" d="M 38.979492 13.5 L 43.532227 51.298828 L 48.084961 77.759766 L 52.637695 96.28125 L 57.19043 109.248047 L 61.743164 118.324219 L 66.295898 124.675781 L 70.848633 129.123047 L 75.401367 132.237305 L 79.951172 134.416992 L 84.503906 135.94043 L 89.056641 137.009766 L 93.609375 137.756836 L 98.162109 138.27832 L 102.714844 138.644531 L 107.267578 138.902344 L 111.820312 139.081055 L 116.373047 139.207031 L 120.925781 139.294922 L 125.475586 139.356445 L 130.02832 139.400391 L 134.581055 139.429688 L 139.133789 139.450195 L 143.686523 139.464844 L 148.239258 139.476562 L 157.344727 139.488281 L 166.450195 139.494141 L 171 139.49707 L 180.105469 139.49707 L 184.658203 139.5 L 216.524414 139.5 " transform="matrix(1.333333,0,0,1.333333,0,0.000000000000014211)"/>
<path style="fill:none;stroke-width:0.8;stroke-linecap:square;stroke-linejoin:miter;stroke:rgb(0%,0%,0%);stroke-opacity:1;stroke-miterlimit:4;" d="M 30.102539 145.798828 L 30.102539 7.201172 " transform="matrix(1.333333,0,0,1.333333,0,0.000000000000014211)"/>
<path style="fill:none;stroke-width:0.8;stroke-linecap:square;stroke-linejoin:miter;stroke:rgb(0%,0%,0%);stroke-opacity:1;stroke-miterlimit:4;" d="M 225.404297 145.798828 L 225.404297 7.201172 " transform="matrix(1.333333,0,0,1.333333,0,0.000000000000014211)"/>
<path style="fill:none;stroke-width:0.8;stroke-linecap:square;stroke-linejoin:miter;stroke:rgb(0%,0%,0%);stroke-opacity:1;stroke-miterlimit:4;" d="M 30.102539 145.798828 L 225.404297 145.798828 " transform="matrix(1.333333,0,0,1.333333,0,0.000000000000014211)"/>
<path style="fill:none;stroke-width:0.8;stroke-linecap:square;stroke-linejoin:miter;stroke:rgb(0%,0%,0%);stroke-opacity:1;stroke-miterlimit:4;" d="M 30.102539 7.201172 L 225.404297 7.201172 " transform="matrix(1.333333,0,0,1.333333,0,0.000000000000014211)"/>
</g>
</svg>
