<?xml version="1.0" encoding="utf-8" standalone="no"?>
<!DOCTYPE svg PUBLIC "-//W3C//DTD SVG 1.1//EN"
  "http://www.w3.org/Graphics/SVG/1.1/DTD/svg11.dtd">
<svg xmlns:xlink="http://www.w3.org/1999/xlink" width="252pt" height="180pt" viewBox="0 0 252 180" xmlns="http://www.w3.org/2000/svg" version="1.1">
 <metadata>
  <rdf:RDF xmlns:dc="http://purl.org/dc/elements/1.1/" xmlns:cc="http://creativecommons.org/ns#" xmlns:rdf="http://www.w3.org/1999/02/22-rdf-syntax-ns#">
   <cc:Work>
    <dc:type rdf:resource="http://purl.org/dc/dcmitype/StillImage"/>
    <dc:date>2024-10-04T13:13:19.694204</dc:date>
    <dc:format>image/svg+xml</dc:format>
    <dc:creator>
     <cc:Agent>
      <dc:title>Matplotlib v3.7.2, https://matplotlib.org/</dc:title>
     </cc:Agent>
    </dc:creator>
   </cc:Work>
  </rdf:RDF>
 </metadata>
 <defs>
  <style type="text/css">*{stroke-linejoin: round; stroke-linecap: butt}</style>
 </defs>
 <g id="figure_1">
  <g id="patch_1">
   <path d="M 0 180 
L 252 180 
L 252 0 
L 0 0 
z
" style="fill: #ffffff"/>
  </g>
  <g id="patch_2">
   <path d="M 59.85 160.2 
L 198.45 160.2 
L 198.45 21.6 
L 59.85 21.6 
z
" style="fill: #ffffff"/>
  </g>
  <g id="pane3d_1">
   <g id="patch_3">
    <path d="M 70.315256 126.025682 
L 116.085502 87.660154 
L 115.449252 32.330204 
L 67.488663 67.329657 
" style="fill: #f2f2f2; opacity: 0.5; stroke: #f2f2f2; stroke-linejoin: miter"/>
   </g>
  </g>
  <g id="pane3d_2">
   <g id="patch_4">
    <path d="M 116.085502 87.660154 
L 189.530417 109.007691 
L 192.151407 51.771964 
L 115.449252 32.330204 
" style="fill: #e6e6e6; opacity: 0.5; stroke: #e6e6e6; stroke-linejoin: miter"/>
   </g>
  </g>
  <g id="pane3d_3">
   <g id="patch_5">
    <path d="M 70.315256 126.025682 
L 148.170453 151.453189 
L 189.530417 109.007691 
L 116.085502 87.660154 
" style="fill: #ececec; opacity: 0.5; stroke: #ececec; stroke-linejoin: miter"/>
   </g>
  </g>
  <g id="axis3d_1">
   <g id="line2d_1">
    <path d="M 70.315256 126.025682 
L 148.170453 151.453189 
" style="fill: none; stroke: #000000; stroke-width: 0.8; stroke-linecap: square"/>
   </g>
   <g id="text_1">
    <!-- x -->
    <g transform="translate(88.840346 176.707234) scale(0.1 -0.1)">
     <defs>
      <path id="DejaVuSans-78" d="M 3513 3500 
L 2247 1797 
L 3578 0 
L 2900 0 
L 1881 1375 
L 863 0 
L 184 0 
L 1544 1831 
L 300 3500 
L 978 3500 
L 1906 2253 
L 2834 3500 
L 3513 3500 
z
" transform="scale(0.015625)"/>
     </defs>
     <use xlink:href="#DejaVuSans-78"/>
    </g>
   </g>
   <g id="Line3DCollection_1">
    <path d="M 75.030575 127.565705 
L 120.552197 88.958445 
L 120.104802 33.51025 
" style="fill: none; stroke: #b0b0b0; stroke-width: 0.8"/>
    <path d="M 108.216605 138.404262 
L 151.920858 98.076077 
L 152.83343 41.806003 
" style="fill: none; stroke: #b0b0b0; stroke-width: 0.8"/>
    <path d="M 142.965667 149.753306 
L 184.640658 107.586431 
L 187.034718 50.475033 
" style="fill: none; stroke: #b0b0b0; stroke-width: 0.8"/>
   </g>
   <g id="xtick_1">
    <g id="line2d_2">
     <path d="M 75.426975 127.229515 
L 74.236075 128.239527 
" style="fill: none; stroke: #000000; stroke-width: 0.8; stroke-linecap: square"/>
    </g>
    <g id="text_2">
     <!-- −1 -->
     <g transform="translate(60.104595 150.928767) scale(0.1 -0.1)">
      <defs>
       <path id="DejaVuSans-2212" d="M 678 2272 
L 4684 2272 
L 4684 1741 
L 678 1741 
L 678 2272 
z
" transform="scale(0.015625)"/>
       <path id="DejaVuSans-31" d="M 794 531 
L 1825 531 
L 1825 4091 
L 703 3866 
L 703 4441 
L 1819 4666 
L 2450 4666 
L 2450 531 
L 3481 531 
L 3481 0 
L 794 0 
L 794 531 
z
" transform="scale(0.015625)"/>
      </defs>
      <use xlink:href="#DejaVuSans-2212"/>
      <use xlink:href="#DejaVuSans-31" x="83.789062"/>
     </g>
    </g>
   </g>
   <g id="xtick_2">
    <g id="line2d_3">
     <path d="M 108.59789 138.05243 
L 107.45236 139.109471 
" style="fill: none; stroke: #000000; stroke-width: 0.8; stroke-linecap: square"/>
    </g>
    <g id="text_3">
     <!-- 0 -->
     <g transform="translate(97.548548 162.212111) scale(0.1 -0.1)">
      <defs>
       <path id="DejaVuSans-30" d="M 2034 4250 
Q 1547 4250 1301 3770 
Q 1056 3291 1056 2328 
Q 1056 1369 1301 889 
Q 1547 409 2034 409 
Q 2525 409 2770 889 
Q 3016 1369 3016 2328 
Q 3016 3291 2770 3770 
Q 2525 4250 2034 4250 
z
M 2034 4750 
Q 2819 4750 3233 4129 
Q 3647 3509 3647 2328 
Q 3647 1150 3233 529 
Q 2819 -91 2034 -91 
Q 1250 -91 836 529 
Q 422 1150 422 2328 
Q 422 3509 836 4129 
Q 1250 4750 2034 4750 
z
" transform="scale(0.015625)"/>
      </defs>
      <use xlink:href="#DejaVuSans-30"/>
     </g>
    </g>
   </g>
   <g id="xtick_3">
    <g id="line2d_4">
     <path d="M 143.329959 149.384714 
L 142.235446 150.492146 
" style="fill: none; stroke: #000000; stroke-width: 0.8; stroke-linecap: square"/>
    </g>
    <g id="text_4">
     <!-- 1 -->
     <g transform="translate(132.380646 174.030877) scale(0.1 -0.1)">
      <use xlink:href="#DejaVuSans-31"/>
     </g>
    </g>
   </g>
  </g>
  <g id="axis3d_2">
   <g id="line2d_5">
    <path d="M 189.530417 109.007691 
L 148.170453 151.453189 
" style="fill: none; stroke: #000000; stroke-width: 0.8; stroke-linecap: square"/>
   </g>
   <g id="text_5">
    <!-- y -->
    <g transform="translate(193.817797 160.083654) scale(0.1 -0.1)">
     <defs>
      <path id="DejaVuSans-79" d="M 2059 -325 
Q 1816 -950 1584 -1140 
Q 1353 -1331 966 -1331 
L 506 -1331 
L 506 -850 
L 844 -850 
Q 1081 -850 1212 -737 
Q 1344 -625 1503 -206 
L 1606 56 
L 191 3500 
L 800 3500 
L 1894 763 
L 2988 3500 
L 3597 3500 
L 2059 -325 
z
" transform="scale(0.015625)"/>
     </defs>
     <use xlink:href="#DejaVuSans-79"/>
    </g>
   </g>
   <g id="Line3DCollection_2">
    <path d="M 70.805257 64.909358 
L 73.469213 123.381973 
L 151.032242 148.516289 
" style="fill: none; stroke: #b0b0b0; stroke-width: 0.8"/>
    <path d="M 92.535822 49.051381 
L 94.175154 106.025842 
L 169.776847 129.279713 
" style="fill: none; stroke: #b0b0b0; stroke-width: 0.8"/>
    <path d="M 112.641995 34.378812 
L 113.396858 89.913829 
L 187.110919 111.490691 
" style="fill: none; stroke: #b0b0b0; stroke-width: 0.8"/>
   </g>
   <g id="xtick_4">
    <g id="line2d_6">
     <path d="M 150.378616 148.304481 
L 152.341184 148.940452 
" style="fill: none; stroke: #000000; stroke-width: 0.8; stroke-linecap: square"/>
    </g>
    <g id="text_6">
     <!-- −1 -->
     <g transform="translate(156.548882 169.545417) scale(0.1 -0.1)">
      <use xlink:href="#DejaVuSans-2212"/>
      <use xlink:href="#DejaVuSans-31" x="83.789062"/>
     </g>
    </g>
   </g>
   <g id="xtick_5">
    <g id="line2d_7">
     <path d="M 169.141011 129.08414 
L 171.050099 129.671345 
" style="fill: none; stroke: #000000; stroke-width: 0.8; stroke-linecap: square"/>
    </g>
    <g id="text_7">
     <!-- 0 -->
     <g transform="translate(178.999632 149.761913) scale(0.1 -0.1)">
      <use xlink:href="#DejaVuSans-30"/>
     </g>
    </g>
   </g>
   <g id="xtick_6">
    <g id="line2d_8">
     <path d="M 186.492096 111.309555 
L 188.350045 111.853396 
" style="fill: none; stroke: #000000; stroke-width: 0.8; stroke-linecap: square"/>
    </g>
    <g id="text_8">
     <!-- 1 -->
     <g transform="translate(195.884942 131.468702) scale(0.1 -0.1)">
      <use xlink:href="#DejaVuSans-31"/>
     </g>
    </g>
   </g>
  </g>
  <g id="axis3d_3">
   <g id="line2d_9">
    <path d="M 189.530417 109.007691 
L 192.151407 51.771964 
" style="fill: none; stroke: #000000; stroke-width: 0.8; stroke-linecap: square"/>
   </g>
   <g id="Line3DCollection_3">
    <path d="M 189.580632 107.911118 
L 116.073287 86.597896 
L 70.261191 124.902989 
" style="fill: none; stroke: #b0b0b0; stroke-width: 0.8"/>
    <path d="M 190.812202 81.016789 
L 115.774011 60.572077 
L 68.934113 97.345357 
" style="fill: none; stroke: #b0b0b0; stroke-width: 0.8"/>
    <path d="M 192.096688 52.966888 
L 115.462508 33.482955 
L 67.547772 68.557093 
" style="fill: none; stroke: #b0b0b0; stroke-width: 0.8"/>
   </g>
   <g id="xtick_7">
    <g id="line2d_10">
     <path d="M 188.963678 107.732234 
L 190.816009 108.269311 
" style="fill: none; stroke: #000000; stroke-width: 0.8; stroke-linecap: square"/>
    </g>
    <g id="text_9">
     <!-- −1 -->
     <g transform="translate(200.423221 112.915807) scale(0.1 -0.1)">
      <use xlink:href="#DejaVuSans-2212"/>
      <use xlink:href="#DejaVuSans-31" x="83.789062"/>
     </g>
    </g>
   </g>
   <g id="xtick_8">
    <g id="line2d_11">
     <path d="M 190.181779 80.845026 
L 192.074579 81.360733 
" style="fill: none; stroke: #000000; stroke-width: 0.8; stroke-linecap: square"/>
    </g>
    <g id="text_10">
     <!-- 0 -->
     <g transform="translate(206.218228 86.125004) scale(0.1 -0.1)">
      <use xlink:href="#DejaVuSans-30"/>
     </g>
    </g>
   </g>
   <g id="xtick_9">
    <g id="line2d_12">
     <path d="M 191.452197 52.803029 
L 193.387271 53.295014 
" style="fill: none; stroke: #000000; stroke-width: 0.8; stroke-linecap: square"/>
    </g>
    <g id="text_11">
     <!-- 1 -->
     <g transform="translate(207.891948 58.189973) scale(0.1 -0.1)">
      <use xlink:href="#DejaVuSans-31"/>
     </g>
    </g>
   </g>
  </g>
  <g id="axes_1">
   <g id="line2d_13">
    <defs>
     <path id="m170331ebb6" d="M -3 3 
L 3 -3 
M -3 -3 
L 3 3 
" style="stroke: #ff0000"/>
    </defs>
    <g clip-path="url(#p2e9811d845)">
     <use xlink:href="#m170331ebb6" x="131.022973" y="89.027027" style="fill: #ff0000; stroke: #ff0000"/>
    </g>
   </g>
   <g id="Line3DCollection_4">
    <path d="M 76.968635 96.268935 
L 77.360556 94.807083 
L 77.753462 93.367565 
L 78.147331 91.950469 
L 78.542142 90.555867 
L 78.937877 89.183829 
L 79.334512 87.834437 
L 79.732029 86.507753 
L 80.130405 85.203848 
L 80.529622 83.922778 
L 80.929656 82.664617 
L 81.330487 81.429414 
L 81.732094 80.217238 
L 82.134454 79.028137 
L 82.537548 77.862163 
L 82.941353 76.719369 
L 83.34585 75.599798 
L 83.751016 74.503497 
L 84.156827 73.430517 
L 84.563264 72.380887 
L 84.970305 71.354651 
L 85.377928 70.351842 
L 85.786113 69.372491 
L 86.194835 68.416632 
L 86.604075 67.484291 
L 87.013809 66.575495 
L 87.424015 65.690266 
L 87.834674 64.828625 
L 88.245762 63.990584 
L 88.657257 63.176167 
L 89.069137 62.385383 
L 89.481383 61.618241 
L 89.893968 60.874752 
L 90.306874 60.15492 
L 90.720079 59.458748 
L 91.133558 58.786238 
L 91.547292 58.137386 
L 91.961259 57.512188 
L 92.375435 56.910639 
L 92.7898 56.332727 
L 93.204332 55.778444 
L 93.619011 55.247772 
L 94.033811 54.740698 
L 94.448714 54.257202 
L 94.863698 53.79726 
L 95.278739 53.360852 
L 95.693818 52.947952 
L 96.108913 52.558529 
L 96.524002 52.192556 
L 96.939063 51.849996 
L 97.354078 51.530816 
L 97.769023 51.234978 
L 98.183876 50.962443 
L 98.598618 50.713167 
L 99.013228 50.487107 
L 99.427684 50.284217 
L 99.841965 50.104448 
L 100.256052 49.947748 
L 100.669923 49.814064 
L 101.083558 49.703341 
L 101.496937 49.615521 
L 101.910038 49.550544 
L 102.322843 49.508352 
L 102.73533 49.488877 
L 103.147481 49.492054 
L 103.559274 49.517817 
L 103.97069 49.566094 
L 104.381711 49.636814 
L 104.792314 49.729904 
L 105.202482 49.845287 
L 105.612197 49.982887 
L 106.021437 50.142621 
L 106.430184 50.324412 
L 106.838421 50.528174 
L 107.246125 50.753821 
L 107.653281 51.001267 
L 108.05987 51.270424 
L 108.465873 51.561201 
L 108.871272 51.873507 
L 109.276049 52.207246 
L 109.680186 52.562323 
L 110.083665 52.938641 
L 110.486469 53.336102 
L 110.88858 53.754602 
L 111.289982 54.194045 
L 111.690658 54.654323 
L 112.090588 55.13533 
L 112.489758 55.636963 
L 112.88815 56.159111 
L 113.285749 56.701665 
L 113.682539 57.264518 
L 114.078501 57.847552 
L 114.473623 58.450657 
L 114.867886 59.073714 
L 115.261275 59.716612 
L 115.653776 60.379229 
L 116.045374 61.061452 
L 116.436051 61.763154 
L 116.825795 62.484218 
L 117.214591 63.224522 
L 117.602423 63.983939 
" clip-path="url(#p2e9811d845)" style="fill: none; stroke: #1f77b4; stroke-width: 1.5"/>
    <path d="M 83.976259 108.362164 
L 84.367396 106.905925 
L 84.759392 105.471739 
L 85.152226 104.059692 
L 85.545877 102.669855 
L 85.940328 101.302299 
L 86.335555 99.957103 
L 86.731538 98.634331 
L 87.128257 97.334053 
L 87.525692 96.056324 
L 87.92382 94.801219 
L 88.322622 93.568784 
L 88.722076 92.359091 
L 89.12216 91.172186 
L 89.522855 90.008121 
L 89.924138 88.86695 
L 90.325991 87.748714 
L 90.72839 86.653461 
L 91.131312 85.58124 
L 91.534739 84.532086 
L 91.938648 83.506036 
L 92.343019 82.503128 
L 92.74783 81.523389 
L 93.153058 80.566858 
L 93.558684 79.633556 
L 93.964685 78.723514 
L 94.371039 77.836753 
L 94.777726 76.973293 
L 95.184725 76.133151 
L 95.592012 75.316346 
L 95.999568 74.522891 
L 96.407371 73.752793 
L 96.815398 73.006065 
L 97.223628 72.282713 
L 97.632043 71.582735 
L 98.040616 70.906138 
L 98.449329 70.252921 
L 98.858162 69.623075 
L 99.26709 69.0166 
L 99.676094 68.433483 
L 100.085152 67.873717 
L 100.494245 67.337284 
L 100.903348 66.824173 
L 101.312442 66.334365 
L 101.721508 65.867836 
L 102.130521 65.424568 
L 102.539463 65.004535 
L 102.948313 64.607708 
L 103.357048 64.23406 
L 103.765649 63.883557 
L 104.174096 63.556164 
L 104.582368 63.251847 
L 104.990443 62.970567 
L 105.398301 62.712282 
L 105.805924 62.476948 
L 106.21329 62.264523 
L 106.620378 62.074958 
L 107.027171 61.908202 
L 107.433646 61.764204 
L 107.839785 61.642911 
L 108.245568 61.544265 
L 108.650975 61.468209 
L 109.055986 61.414685 
L 109.460582 61.383627 
L 109.864746 61.374972 
L 110.268456 61.388654 
L 110.671693 61.424607 
L 111.074441 61.482757 
L 111.476678 61.563032 
L 111.878386 61.665361 
L 112.279549 61.789666 
L 112.680146 61.935868 
L 113.080159 62.10389 
L 113.479572 62.293648 
L 113.878364 62.50506 
L 114.276519 62.73804 
L 114.67402 62.992501 
L 115.070849 63.268355 
L 115.466987 63.565512 
L 115.86242 63.883879 
L 116.257128 64.223362 
L 116.651094 64.583866 
L 117.044303 64.965295 
L 117.436739 65.367549 
L 117.828384 65.79053 
L 118.219223 66.234134 
L 118.609238 66.698258 
L 118.998414 67.182799 
L 119.386736 67.687649 
L 119.774187 68.212701 
L 120.160754 68.757851 
L 120.546419 69.322981 
L 120.93117 69.907985 
L 121.314989 70.512745 
L 121.697862 71.137151 
L 122.079775 71.781086 
L 122.460715 72.444436 
L 122.840665 73.127079 
L 123.219613 73.828898 
L 123.597545 74.549774 
L 123.974447 75.289583 
" clip-path="url(#p2e9811d845)" style="fill: none; stroke: #1f77b4; stroke-width: 1.5"/>
    <path d="M 90.868828 118.180253 
L 91.259854 116.726915 
L 91.651619 115.295427 
L 92.0441 113.885873 
L 92.437279 112.498326 
L 92.831136 111.132856 
L 93.225648 109.789541 
L 93.620796 108.468445 
L 94.016559 107.169638 
L 94.412918 105.893176 
L 94.809849 104.639131 
L 95.207335 103.407553 
L 95.605351 102.19851 
L 96.003879 101.01205 
L 96.402897 99.848224 
L 96.802384 98.707087 
L 97.202321 97.58868 
L 97.602685 96.493052 
L 98.003454 95.420249 
L 98.404608 94.370308 
L 98.806126 93.343266 
L 99.207987 92.339162 
L 99.610171 91.358022 
L 100.012654 90.399885 
L 100.415417 89.464773 
L 100.818438 88.552717 
L 101.221696 87.663739 
L 101.625169 86.797858 
L 102.028839 85.955092 
L 102.432681 85.135462 
L 102.836675 84.338977 
L 103.240802 83.565649 
L 103.645038 82.815489 
L 104.049364 82.088503 
L 104.453759 81.384692 
L 104.858199 80.704062 
L 105.262667 80.046611 
L 105.667141 79.412333 
L 106.071598 78.801226 
L 106.476019 78.213282 
L 106.880383 77.648489 
L 107.28467 77.106835 
L 107.688858 76.588305 
L 108.092927 76.092883 
L 108.496858 75.620547 
L 108.900628 75.171277 
L 109.304217 74.745049 
L 109.707607 74.341834 
L 110.110775 73.961607 
L 110.513702 73.604334 
L 110.916369 73.269982 
L 111.318755 72.958516 
L 111.72084 72.669898 
L 112.122603 72.40409 
L 112.524027 72.161046 
L 112.92509 71.940724 
L 113.325774 71.743078 
L 113.72606 71.568058 
L 114.125927 71.415614 
L 114.525356 71.285692 
L 114.92433 71.178237 
L 115.322828 71.093193 
L 115.720832 71.030501 
L 116.118322 70.990099 
L 116.515283 70.971923 
L 116.911693 70.97591 
L 117.307534 71.001991 
L 117.702791 71.050098 
L 118.097442 71.120159 
L 118.49147 71.212102 
L 118.88486 71.325851 
L 119.277591 71.46133 
L 119.669647 71.618461 
L 120.061011 71.797163 
L 120.451664 71.997353 
L 120.841591 72.218949 
L 121.230774 72.461863 
L 121.619198 72.72601 
L 122.006843 73.0113 
L 122.393696 73.317642 
L 122.779739 73.644942 
L 123.164955 73.993109 
L 123.54933 74.362046 
L 123.932847 74.751654 
L 124.315492 75.161839 
L 124.697248 75.592496 
L 125.078099 76.043524 
L 125.458031 76.514823 
L 125.837029 77.006284 
L 126.215078 77.517802 
L 126.592165 78.049275 
L 126.968273 78.600585 
L 127.343389 79.17163 
L 127.717499 79.762292 
L 128.090588 80.372463 
L 128.462644 81.002026 
L 128.833653 81.65087 
L 129.203601 82.318873 
L 129.572474 83.005921 
L 129.940262 83.711896 
L 130.306949 84.436674 
" clip-path="url(#p2e9811d845)" style="fill: none; stroke: #1f77b4; stroke-width: 1.5"/>
    <path d="M 97.682742 125.784673 
L 98.07433 124.331556 
L 98.46654 122.900161 
L 98.859348 121.490573 
L 99.252735 120.102865 
L 99.646682 118.737106 
L 100.041167 117.393375 
L 100.436169 116.071736 
L 100.831668 114.772259 
L 101.227645 113.495 
L 101.624076 112.240031 
L 102.020943 111.007402 
L 102.418224 109.797182 
L 102.815897 108.609418 
L 103.213944 107.444162 
L 103.612342 106.301468 
L 104.011071 105.181378 
L 104.410111 104.08394 
L 104.809438 103.009202 
L 105.209034 101.957201 
L 105.608876 100.927973 
L 106.008944 99.921557 
L 106.409219 98.937982 
L 106.809676 97.977284 
L 107.210298 97.039487 
L 107.611061 96.124621 
L 108.011945 95.232709 
L 108.41293 94.363772 
L 108.813995 93.517825 
L 109.215117 92.694891 
L 109.616278 91.89498 
L 110.017456 91.118103 
L 110.41863 90.364273 
L 110.819779 89.633495 
L 111.220884 88.92577 
L 111.621922 88.241106 
L 112.022873 87.5795 
L 112.423719 86.940947 
L 112.824436 86.325446 
L 113.225005 85.732988 
L 113.625405 85.163563 
L 114.025619 84.617157 
L 114.425622 84.093759 
L 114.825396 83.59335 
L 115.224922 83.115911 
L 115.624178 82.661421 
L 116.023145 82.229857 
L 116.421804 81.821192 
L 116.820134 81.435398 
L 117.218115 81.072445 
L 117.615729 80.732298 
L 118.012956 80.414925 
L 118.409775 80.120287 
L 118.806168 79.848346 
L 119.202117 79.599058 
L 119.597601 79.372382 
L 119.992601 79.16827 
L 120.387101 78.986674 
L 120.781079 78.827545 
L 121.174517 78.69083 
L 121.567399 78.576475 
L 121.959704 78.484423 
L 122.351414 78.414615 
L 122.742512 78.366992 
L 123.13298 78.341491 
L 123.522799 78.338046 
L 123.911952 78.356592 
L 124.300423 78.397061 
L 124.688192 78.459381 
L 125.075242 78.543481 
L 125.461558 78.649286 
L 125.847121 78.776721 
L 126.231915 78.925707 
L 126.615924 79.096166 
L 126.99913 79.288014 
L 127.381517 79.501171 
L 127.76307 79.735549 
L 128.143772 79.991064 
L 128.523607 80.267626 
L 128.90256 80.565146 
L 129.280614 80.88353 
L 129.657754 81.222688 
L 130.033966 81.582523 
L 130.409234 81.962939 
L 130.783544 82.36384 
L 131.156881 82.785125 
L 131.529229 83.22669 
L 131.900575 83.688437 
L 132.270904 84.17026 
L 132.640203 84.672053 
L 133.008458 85.193715 
L 133.375655 85.73513 
L 133.741781 86.296195 
L 134.10682 86.876793 
L 134.470762 87.476817 
L 134.833593 88.096152 
L 135.195302 88.734687 
L 135.555873 89.392301 
L 135.915296 90.068881 
L 136.273558 90.764308 
L 136.630647 91.478462 
" clip-path="url(#p2e9811d845)" style="fill: none; stroke: #1f77b4; stroke-width: 1.5"/>
    <path d="M 104.453487 131.213651 
L 104.846317 129.758076 
L 105.239652 128.32417 
L 105.633468 126.912019 
L 106.027748 125.521697 
L 106.422471 124.153272 
L 106.817614 122.806825 
L 107.213158 121.482418 
L 107.609082 120.180123 
L 108.005366 118.899996 
L 108.401989 117.642109 
L 108.79893 116.406512 
L 109.196168 115.193274 
L 109.593681 114.002444 
L 109.991451 112.834072 
L 110.389455 111.688215 
L 110.787674 110.564913 
L 111.186086 109.464215 
L 111.584669 108.386169 
L 111.983403 107.330813 
L 112.382267 106.298183 
L 112.781241 105.288318 
L 113.180305 104.301247 
L 113.579436 103.337007 
L 113.978614 102.395622 
L 114.377818 101.477123 
L 114.777027 100.581532 
L 115.176221 99.70887 
L 115.57538 98.859155 
L 115.974481 98.032407 
L 116.373505 97.228638 
L 116.772432 96.447859 
L 117.171239 95.690083 
L 117.569908 94.955315 
L 117.968418 94.243559 
L 118.366747 93.554819 
L 118.764877 92.889095 
L 119.162787 92.246382 
L 119.560455 91.626679 
L 119.957863 91.029977 
L 120.35499 90.456266 
L 120.751818 89.905533 
L 121.148324 89.377767 
L 121.544489 88.872949 
L 121.940296 88.391061 
L 122.335722 87.932082 
L 122.730748 87.495989 
L 123.125357 87.082754 
L 123.519527 86.692353 
L 123.913239 86.324752 
L 124.306476 85.979919 
L 124.699218 85.657821 
L 125.091444 85.35842 
L 125.483136 85.081678 
L 125.874278 84.827551 
L 126.264849 84.595998 
L 126.65483 84.386972 
L 127.044205 84.200425 
L 127.432953 84.036309 
L 127.821058 83.89457 
L 128.208502 83.775154 
L 128.595266 83.678005 
L 128.981333 83.603065 
L 129.366685 83.550274 
L 129.751306 83.519569 
L 130.135177 83.510887 
L 130.518281 83.52416 
L 130.900603 83.559321 
L 131.282124 83.616299 
L 131.662828 83.695023 
L 132.0427 83.795419 
L 132.421721 83.91741 
L 132.799875 84.060919 
L 133.177149 84.225868 
L 133.553524 84.412174 
L 133.928985 84.619755 
L 134.303517 84.848526 
L 134.677106 85.098401 
L 135.049734 85.369291 
L 135.421387 85.661107 
L 135.792051 85.973756 
L 136.161709 86.307148 
L 136.530349 86.661185 
L 136.897955 87.035773 
L 137.264515 87.430815 
L 137.630013 87.84621 
L 137.994434 88.281856 
L 138.357767 88.737655 
L 138.719997 89.213499 
L 139.081111 89.709283 
L 139.441097 90.224908 
L 139.79994 90.760256 
L 140.157629 91.315225 
L 140.514151 91.889699 
L 140.869492 92.483571 
L 141.223642 93.096725 
L 141.576589 93.729051 
L 141.928319 94.380429 
L 142.278822 95.050745 
L 142.628088 95.739882 
L 142.976102 96.447717 
" clip-path="url(#p2e9811d845)" style="fill: none; stroke: #1f77b4; stroke-width: 1.5"/>
    <path d="M 111.216253 134.482803 
L 111.611017 133.022062 
L 112.006169 131.583014 
L 112.401687 130.165745 
L 112.797552 128.770327 
L 113.193744 127.396831 
L 113.590239 126.045339 
L 113.987018 124.715912 
L 114.38406 123.408623 
L 114.781347 122.123527 
L 115.178853 120.8607 
L 115.576562 119.620189 
L 115.974449 118.402066 
L 116.372495 117.206378 
L 116.77068 116.033179 
L 117.168981 114.882522 
L 117.56738 113.75445 
L 117.965855 112.649012 
L 118.364383 111.566258 
L 118.762944 110.506222 
L 119.161519 109.468945 
L 119.560085 108.454465 
L 119.958624 107.462809 
L 120.357112 106.494017 
L 120.755531 105.548113 
L 121.153858 104.625127 
L 121.552073 103.725083 
L 121.950156 102.848001 
L 122.348087 101.993898 
L 122.745843 101.162798 
L 123.143406 100.35471 
L 123.540755 99.569647 
L 123.937868 98.807621 
L 124.334726 98.068638 
L 124.73131 97.352701 
L 125.127598 96.659817 
L 125.523569 95.989983 
L 125.919206 95.343195 
L 126.314487 94.719453 
L 126.709392 94.118747 
L 127.103901 93.541068 
L 127.497997 92.986403 
L 127.891657 92.454742 
L 128.284863 91.946064 
L 128.677596 91.460352 
L 129.069835 90.997586 
L 129.461563 90.557741 
L 129.85276 90.140791 
L 130.243406 89.74671 
L 130.633483 89.375467 
L 131.022973 89.027027 
L 131.411857 88.701358 
L 131.800114 88.398423 
L 132.187728 88.118182 
L 132.574681 87.860592 
L 132.960954 87.625613 
L 133.346528 87.413196 
L 133.731387 87.223295 
L 134.115512 87.055859 
L 134.498886 86.910836 
L 134.881492 86.788172 
L 135.263311 86.68781 
L 135.644327 86.609692 
L 136.024522 86.553758 
L 136.403881 86.519945 
L 136.782386 86.508189 
L 137.16002 86.518423 
L 137.536768 86.550579 
L 137.912611 86.604587 
L 138.287536 86.680374 
L 138.661526 86.777866 
L 139.034564 86.896987 
L 139.406635 87.03766 
L 139.777725 87.199805 
L 140.147817 87.383339 
L 140.516896 87.588181 
L 140.884947 87.814245 
L 141.251958 88.061444 
L 141.61791 88.32969 
L 141.982792 88.618894 
L 142.346588 88.928962 
L 142.709283 89.259802 
L 143.070866 89.611319 
L 143.431321 89.983415 
L 143.790636 90.375996 
L 144.148797 90.788959 
L 144.50579 91.222202 
L 144.861603 91.675625 
L 145.216222 92.149123 
L 145.569637 92.642589 
L 145.921833 93.155921 
L 146.272799 93.689005 
L 146.622524 94.241737 
L 146.970993 94.813999 
L 147.318196 95.405686 
L 147.664122 96.01668 
L 148.008761 96.646871 
L 148.352099 97.296139 
L 148.694127 97.964369 
L 149.034834 98.651444 
L 149.374209 99.357241 
" clip-path="url(#p2e9811d845)" style="fill: none; stroke: #1f77b4; stroke-width: 1.5"/>
    <path d="M 118.006544 135.585183 
L 118.403954 134.116513 
L 118.801635 132.669635 
L 119.199566 131.244634 
L 119.597726 129.841586 
L 119.996095 128.460561 
L 120.39465 127.101641 
L 120.793371 125.76489 
L 121.192237 124.45038 
L 121.591228 123.158169 
L 121.990322 121.888329 
L 122.389498 120.640913 
L 122.788735 119.41599 
L 123.188012 118.21361 
L 123.587307 117.033825 
L 123.986601 115.876691 
L 124.385872 114.742251 
L 124.7851 113.630554 
L 125.184262 112.54165 
L 125.583338 111.475575 
L 125.982307 110.43237 
L 126.381148 109.412071 
L 126.779842 108.414709 
L 127.178366 107.440323 
L 127.5767 106.488936 
L 127.974823 105.560581 
L 128.372715 104.655279 
L 128.770354 103.773053 
L 129.167723 102.91392 
L 129.564797 102.077902 
L 129.961557 101.265011 
L 130.357985 100.475257 
L 130.754058 99.708655 
L 131.149757 98.965211 
L 131.545062 98.244927 
L 131.939952 97.547809 
L 132.334407 96.873856 
L 132.728409 96.223064 
L 133.121937 95.595431 
L 133.51497 94.990949 
L 133.90749 94.409609 
L 134.299478 93.851397 
L 134.690913 93.316301 
L 135.081777 92.804305 
L 135.472051 92.315386 
L 135.861714 91.849528 
L 136.250749 91.406705 
L 136.639137 90.986889 
L 137.026858 90.590055 
L 137.413894 90.216172 
L 137.800228 89.865205 
L 138.18584 89.53712 
L 138.570712 89.231881 
L 138.954826 88.949447 
L 139.338165 88.689776 
L 139.720709 88.452826 
L 140.102443 88.238548 
L 140.483348 88.046895 
L 140.863407 87.877817 
L 141.242603 87.731261 
L 141.620919 87.607171 
L 141.998337 87.505492 
L 142.374841 87.426164 
L 142.750415 87.369126 
L 143.125043 87.334315 
L 143.498706 87.321667 
L 143.871391 87.331113 
L 144.243081 87.362585 
L 144.613759 87.416012 
L 144.983411 87.491321 
L 145.352022 87.588438 
L 145.719574 87.707285 
L 146.086054 87.847783 
L 146.451448 88.009854 
L 146.815739 88.193414 
L 147.178914 88.398379 
L 147.540958 88.624663 
L 147.901857 88.87218 
L 148.261597 89.140839 
L 148.620165 89.430552 
L 148.977546 89.741221 
L 149.333726 90.072757 
L 149.688693 90.425062 
L 150.042435 90.798038 
L 150.394938 91.191589 
L 150.746189 91.605611 
L 151.096175 92.040002 
L 151.444884 92.494662 
L 151.792305 92.969482 
L 152.138425 93.464356 
L 152.483234 93.979183 
L 152.826718 94.513844 
L 153.168868 95.068236 
L 153.50967 95.642241 
L 153.849116 96.23575 
L 154.187193 96.848648 
L 154.523892 97.48082 
L 154.859202 98.132148 
L 155.193113 98.802514 
L 155.525616 99.4918 
L 155.856698 100.199884 
" clip-path="url(#p2e9811d845)" style="fill: none; stroke: #1f77b4; stroke-width: 1.5"/>
    <path d="M 124.860813 134.490746 
L 125.26161 133.011293 
L 125.66256 131.553808 
L 126.063639 130.118379 
L 126.464828 128.705082 
L 126.866107 127.313989 
L 127.267451 125.945182 
L 127.668842 124.598727 
L 128.070256 123.274696 
L 128.471675 121.973148 
L 128.873075 120.694158 
L 129.274436 119.437777 
L 129.675736 118.204077 
L 130.076954 116.993107 
L 130.478068 115.804921 
L 130.879058 114.639576 
L 131.279904 113.497114 
L 131.680584 112.377588 
L 132.081074 111.281044 
L 132.481356 110.207523 
L 132.881408 109.157063 
L 133.281209 108.129703 
L 133.680739 107.125473 
L 134.079976 106.144413 
L 134.4789 105.186546 
L 134.877489 104.251906 
L 135.275723 103.340514 
L 135.673582 102.452393 
L 136.071046 101.58756 
L 136.468092 100.746038 
L 136.864701 99.927839 
L 137.260853 99.132974 
L 137.656527 98.361456 
L 138.051704 97.613291 
L 138.446363 96.888482 
L 138.840484 96.187036 
L 139.234047 95.508951 
L 139.627034 94.854222 
L 140.019423 94.222848 
L 140.411195 93.614821 
L 140.802332 93.03013 
L 141.192813 92.468762 
L 141.58262 91.930706 
L 141.971732 91.415942 
L 142.360133 90.924451 
L 142.747801 90.456214 
L 143.134719 90.011204 
L 143.520869 89.589394 
L 143.906231 89.190759 
L 144.290787 88.815265 
L 144.674521 88.462878 
L 145.057412 88.133564 
L 145.439443 87.827286 
L 145.820596 87.544001 
L 146.200856 87.283668 
L 146.580201 87.046242 
L 146.958617 86.831676 
L 147.336087 86.639921 
L 147.712592 86.470925 
L 148.088116 86.324635 
L 148.462644 86.200995 
L 148.836156 86.099948 
L 149.208639 86.021432 
L 149.580075 85.965388 
L 149.95045 85.931749 
L 150.319746 85.920451 
L 150.687948 85.931425 
L 151.055041 85.9646 
L 151.421009 86.019905 
L 151.785838 86.097267 
L 152.149512 86.196607 
L 152.512017 86.31785 
L 152.873338 86.460914 
L 153.233461 86.625719 
L 153.592371 86.81218 
L 153.950055 87.020212 
L 154.306499 87.249729 
L 154.66169 87.500641 
L 155.015613 87.772858 
L 155.368256 88.066288 
L 155.719605 88.380835 
L 156.069648 88.716406 
L 156.418371 89.072902 
L 156.765764 89.450223 
L 157.111814 89.848273 
L 157.456508 90.266946 
L 157.799834 90.706138 
L 158.141781 91.165747 
L 158.482338 91.645663 
L 158.821493 92.145779 
L 159.159236 92.665991 
L 159.495554 93.20618 
L 159.83044 93.76624 
L 160.163879 94.346052 
L 160.495864 94.945506 
L 160.826384 95.564483 
L 161.15543 96.20287 
L 161.482991 96.860543 
L 161.809058 97.537385 
L 162.133624 98.233276 
L 162.456676 98.948092 
" clip-path="url(#p2e9811d845)" style="fill: none; stroke: #1f77b4; stroke-width: 1.5"/>
    <path d="M 131.817147 131.145165 
L 132.222108 129.651949 
L 132.627101 128.18096 
L 133.0321 126.732288 
L 133.437086 125.30601 
L 133.842038 123.902199 
L 134.246932 122.520939 
L 134.651748 121.162297 
L 135.056463 119.826347 
L 135.461058 118.513147 
L 135.865508 117.222776 
L 136.269794 115.955284 
L 136.673892 114.710745 
L 137.077783 113.489208 
L 137.481443 112.290731 
L 137.884853 111.115367 
L 138.287991 109.963164 
L 138.690836 108.834171 
L 139.093364 107.728438 
L 139.495555 106.646005 
L 139.897389 105.586912 
L 140.298843 104.551198 
L 140.699899 103.538893 
L 141.100533 102.550038 
L 141.500726 101.584657 
L 141.900454 100.642783 
L 142.299699 99.724438 
L 142.69844 98.829645 
L 143.096656 97.958422 
L 143.494326 97.110792 
L 143.89143 96.286766 
L 144.287948 95.486356 
L 144.683859 94.709574 
L 145.079142 93.956428 
L 145.47378 93.22692 
L 145.86775 92.521055 
L 146.261033 91.838832 
L 146.65361 91.180247 
L 147.045461 90.545297 
L 147.436566 89.933975 
L 147.826905 89.346269 
L 148.216462 88.782165 
L 148.605215 88.241651 
L 148.993145 87.724709 
L 149.380236 87.231317 
L 149.766465 86.761454 
L 150.151817 86.315098 
L 150.536272 85.892216 
L 150.919812 85.492782 
L 151.302419 85.116765 
L 151.684076 84.764128 
L 152.064764 84.434835 
L 152.444464 84.128849 
L 152.823161 83.846127 
L 153.200837 83.586625 
L 153.577475 83.350298 
L 153.953056 83.137098 
L 154.327567 82.946974 
L 154.700988 82.779874 
L 155.073304 82.635742 
L 155.4445 82.514521 
L 155.814556 82.416153 
L 156.183459 82.340576 
L 156.551193 82.287727 
L 156.917743 82.257539 
L 157.283092 82.249946 
L 157.647226 82.264878 
L 158.01013 82.302262 
L 158.371788 82.362025 
L 158.732186 82.444092 
L 159.09131 82.548384 
L 159.449146 82.674822 
L 159.805678 82.823324 
L 160.160896 82.993807 
L 160.514782 83.186185 
L 160.867325 83.400371 
L 161.218512 83.636276 
L 161.568329 83.893809 
L 161.916764 84.172878 
L 162.263804 84.473389 
L 162.609435 84.795243 
L 162.953647 85.138347 
L 163.296427 85.502597 
L 163.637764 85.887894 
L 163.977646 86.294138 
L 164.316062 86.721221 
L 164.652999 87.169037 
L 164.988447 87.637481 
L 165.322396 88.126443 
L 165.654835 88.635812 
L 165.985755 89.165482 
L 166.315143 89.715331 
L 166.642992 90.285252 
L 166.96929 90.875123 
L 167.294028 91.484831 
L 167.617197 92.114256 
L 167.93879 92.763282 
L 168.258795 93.431783 
L 168.577205 94.119639 
L 168.894011 94.826727 
L 169.209205 95.552921 
" clip-path="url(#p2e9811d845)" style="fill: none; stroke: #1f77b4; stroke-width: 1.5"/>
    <path d="M 138.916001 125.46794 
L 139.325953 123.95782 
L 139.735808 122.470273 
L 140.145543 121.005391 
L 140.555136 119.563252 
L 140.964566 118.143932 
L 141.373809 116.747516 
L 141.782844 115.374072 
L 142.191649 114.023676 
L 142.600203 112.69639 
L 143.008481 111.39229 
L 143.416464 110.11143 
L 143.824128 108.853885 
L 144.231451 107.619705 
L 144.638412 106.408948 
L 145.044989 105.221672 
L 145.451162 104.05792 
L 145.856907 102.917746 
L 146.262202 101.801202 
L 146.667026 100.708325 
L 147.071359 99.639157 
L 147.475177 98.593739 
L 147.878462 97.572101 
L 148.28119 96.574284 
L 148.683342 95.600313 
L 149.084894 94.65022 
L 149.485826 93.72403 
L 149.886118 92.821764 
L 150.285751 91.943441 
L 150.6847 91.089083 
L 151.082947 90.258704 
L 151.480472 89.452312 
L 151.877253 88.669922 
L 152.273271 87.911542 
L 152.668506 87.17717 
L 153.062937 86.466814 
L 153.456544 85.780474 
L 153.849309 85.118142 
L 154.24121 84.479817 
L 154.632229 83.865487 
L 155.022347 83.275146 
L 155.411545 82.708776 
L 155.799802 82.166364 
L 156.187101 81.647892 
L 156.573424 81.153335 
L 156.958749 80.682674 
L 157.343061 80.235883 
L 157.726341 79.812932 
L 158.108569 79.413793 
L 158.489729 79.038429 
L 158.869804 78.686805 
L 159.248775 78.358886 
L 159.626623 78.054631 
L 160.003333 77.773994 
L 160.378889 77.516932 
L 160.753271 77.2834 
L 161.126464 77.073345 
L 161.498453 76.886716 
L 161.869218 76.723458 
L 162.238746 76.583516 
L 162.607021 76.466828 
L 162.974025 76.373336 
L 163.339743 76.302977 
L 163.704162 76.255683 
L 164.067265 76.231387 
L 164.429037 76.230019 
L 164.789463 76.251511 
L 165.14853 76.295785 
L 165.506222 76.362765 
L 165.862525 76.452375 
L 166.217427 76.564534 
L 166.570912 76.699159 
L 166.922967 76.856168 
L 167.27358 77.035474 
L 167.622736 77.236988 
L 167.970422 77.460622 
L 168.316628 77.706284 
L 168.66134 77.973881 
L 169.004545 78.263316 
L 169.346233 78.574494 
L 169.686389 78.907314 
L 170.025004 79.261678 
L 170.362065 79.637483 
L 170.697563 80.034623 
L 171.031486 80.452997 
L 171.363823 80.892495 
L 171.694563 81.353007 
L 172.023696 81.834426 
L 172.351212 82.336638 
L 172.677102 82.859529 
L 173.001357 83.40299 
L 173.323965 83.966897 
L 173.64492 84.55114 
L 173.96421 85.155592 
L 174.281827 85.780139 
L 174.597764 86.424657 
L 174.912012 87.089026 
L 175.224562 87.773118 
L 175.535407 88.47681 
L 175.84454 89.199976 
L 176.151952 89.942486 
" clip-path="url(#p2e9811d845)" style="fill: none; stroke: #1f77b4; stroke-width: 1.5"/>
    <path d="M 146.201058 117.34972 
L 146.616883 115.819348 
L 147.032478 114.311988 
L 147.447818 112.827736 
L 147.862882 111.366671 
L 148.277647 109.928871 
L 148.692089 108.514424 
L 149.106186 107.1234 
L 149.519916 105.755875 
L 149.933257 104.411914 
L 150.346184 103.091595 
L 150.758677 101.794973 
L 151.170711 100.522125 
L 151.582266 99.273103 
L 151.993318 98.047965 
L 152.403845 96.84677 
L 152.813827 95.669564 
L 153.22324 94.5164 
L 153.632061 93.387334 
L 154.040269 92.2824 
L 154.447842 91.201644 
L 154.854759 90.145106 
L 155.260999 89.112818 
L 155.666538 88.10482 
L 156.071357 87.121139 
L 156.475432 86.161807 
L 156.878744 85.226849 
L 157.28127 84.316287 
L 157.682992 83.430137 
L 158.083886 82.568425 
L 158.483933 81.731164 
L 158.883112 80.918361 
L 159.281402 80.130031 
L 159.678782 79.366181 
L 160.075235 78.626812 
L 160.470736 77.91193 
L 160.865269 77.221529 
L 161.258813 76.555608 
L 161.651348 75.914162 
L 162.042855 75.297179 
L 162.433314 74.704651 
L 162.822707 74.136559 
L 163.211014 73.592891 
L 163.598216 73.073626 
L 163.984296 72.578739 
L 164.369233 72.10821 
L 164.75301 71.66201 
L 165.135611 71.240108 
L 165.517014 70.842475 
L 165.897203 70.469073 
L 166.276162 70.119865 
L 166.653872 69.794813 
L 167.030315 69.493876 
L 167.405476 69.217006 
L 167.779337 68.964158 
L 168.151881 68.735283 
L 168.523092 68.530328 
L 168.892955 68.349239 
L 169.261452 68.19196 
L 169.628568 68.058431 
L 169.994289 67.948592 
L 170.358596 67.862378 
L 170.721477 67.799726 
L 171.082915 67.760566 
L 171.442898 67.744827 
L 171.801409 67.752439 
L 172.158434 67.783325 
L 172.51396 67.837409 
L 172.867972 67.914613 
L 173.220456 68.014857 
L 173.571401 68.138056 
L 173.92079 68.284125 
L 174.268613 68.452978 
L 174.614857 68.644527 
L 174.959508 68.858677 
L 175.302554 69.095338 
L 175.643984 69.354415 
L 175.983786 69.63581 
L 176.321947 69.939428 
L 176.658458 70.265164 
L 176.993305 70.612918 
L 177.326478 70.982587 
L 177.657967 71.374064 
L 177.987762 71.787238 
L 178.315852 72.222009 
L 178.642227 72.678259 
L 178.966876 73.155876 
L 179.289791 73.65475 
L 179.610962 74.174762 
L 179.930381 74.715795 
L 180.248039 75.277736 
L 180.563925 75.860457 
L 180.878034 76.463844 
L 181.190355 77.087766 
L 181.500882 77.732106 
L 181.809606 78.396735 
L 182.116521 79.08153 
L 182.421618 79.786359 
L 182.724891 80.511094 
L 183.026334 81.255605 
L 183.325939 82.019758 
" clip-path="url(#p2e9811d845)" style="fill: none; stroke: #1f77b4; stroke-width: 1.5"/>
    <path d="M 76.968635 96.268935 
L 77.675641 97.582889 
L 78.381159 98.873354 
L 79.085225 100.140419 
L 79.787878 101.384178 
L 80.489158 102.604725 
L 81.1891 103.802139 
L 81.887744 104.97651 
L 82.585126 106.127916 
L 83.281287 107.256445 
L 83.976259 108.362164 
L 84.670084 109.445156 
L 85.362795 110.505484 
L 86.05443 111.543223 
L 86.745027 112.558442 
L 87.434621 113.551201 
L 88.12325 114.521569 
L 88.810951 115.469603 
L 89.497755 116.395355 
L 90.183702 117.298888 
L 90.868828 118.180253 
L 91.553167 119.039499 
L 92.236759 119.876678 
L 92.919634 120.691834 
L 93.601832 121.48501 
L 94.283386 122.256249 
L 94.964331 123.005588 
L 95.644703 123.733066 
L 96.324541 124.438721 
L 97.003875 125.122579 
L 97.682742 125.784673 
L 98.361179 126.425033 
L 99.039219 127.043682 
L 99.716897 127.640644 
L 100.394251 128.215941 
L 101.071312 128.76959 
L 101.748118 129.301611 
L 102.424705 129.812017 
L 103.101104 130.300818 
L 103.777353 130.768028 
L 104.453487 131.213651 
L 105.129542 131.637696 
L 105.805551 132.040163 
L 106.48155 132.421055 
L 107.157577 132.780372 
L 107.833663 133.118108 
L 108.509845 133.434257 
L 109.186161 133.728813 
L 109.862643 134.001764 
L 110.539327 134.253099 
L 111.216253 134.482803 
L 111.893453 134.690857 
L 112.570961 134.877243 
L 113.248815 135.04194 
L 113.927054 135.184923 
L 114.605709 135.306165 
L 115.284819 135.405638 
L 115.964423 135.483311 
L 116.644552 135.53915 
L 117.325246 135.57312 
L 118.006544 135.585183 
L 118.688478 135.575298 
L 119.371087 135.54342 
L 120.05441 135.489506 
L 120.738485 135.413508 
L 121.423346 135.315374 
L 122.109034 135.195054 
L 122.795587 135.05249 
L 123.483041 134.887625 
L 124.171436 134.700398 
L 124.860813 134.490746 
L 125.551207 134.258606 
L 126.242658 134.003907 
L 126.935209 133.726577 
L 127.628895 133.426548 
L 128.323757 133.103739 
L 129.019837 132.758074 
L 129.717177 132.389469 
L 130.415813 131.997841 
L 131.11579 131.583102 
L 131.817147 131.145165 
L 132.519926 130.683934 
L 133.224169 130.199314 
L 133.929919 129.691211 
L 134.637221 129.159515 
L 135.346116 128.604127 
L 136.056645 128.024942 
L 136.768853 127.421844 
L 137.482785 126.794724 
L 138.198485 126.143465 
L 138.916001 125.46794 
L 139.635373 124.768036 
L 140.356652 124.04362 
L 141.079879 123.294568 
L 141.805103 122.520743 
L 142.532371 121.722012 
L 143.261733 120.898229 
L 143.993233 120.049259 
L 144.72692 119.174951 
L 145.462847 118.275155 
L 146.201058 117.34972 
" clip-path="url(#p2e9811d845)" style="fill: none; stroke: #1f77b4; stroke-width: 1.5"/>
    <path d="M 80.929656 82.664617 
L 81.635001 83.983979 
L 82.338929 85.279613 
L 83.041474 86.551607 
L 83.742677 87.800058 
L 84.442577 89.02506 
L 85.141208 90.22669 
L 85.838611 91.405041 
L 86.534822 92.560191 
L 87.229881 93.692228 
L 87.92382 94.801219 
L 88.616682 95.887248 
L 89.308498 96.950377 
L 89.999307 97.990684 
L 90.689147 99.008235 
L 91.378053 100.003093 
L 92.066063 100.975325 
L 92.753213 101.92499 
L 93.439535 102.85214 
L 94.125069 103.756836 
L 94.809849 104.639131 
L 95.493912 105.499074 
L 96.177296 106.336718 
L 96.860031 107.152104 
L 97.542158 107.945279 
L 98.223708 108.716282 
L 98.904719 109.465153 
L 99.585225 110.19193 
L 100.265265 110.896649 
L 100.94487 111.579339 
L 101.624076 112.240031 
L 102.302921 112.878756 
L 102.981436 113.495536 
L 103.659659 114.090394 
L 104.337627 114.663355 
L 105.01537 115.214434 
L 105.692927 115.743647 
L 106.370333 116.251011 
L 107.047621 116.736537 
L 107.724828 117.200234 
L 108.401989 117.642109 
L 109.07914 118.062169 
L 109.756315 118.460415 
L 110.433549 118.836848 
L 111.11088 119.191469 
L 111.78834 119.52427 
L 112.465967 119.835246 
L 113.143797 120.124389 
L 113.821863 120.391687 
L 114.500203 120.63713 
L 115.178853 120.8607 
L 115.857849 121.062379 
L 116.537224 121.242147 
L 117.217017 121.399983 
L 117.897265 121.535861 
L 118.578001 121.649754 
L 119.259264 121.741632 
L 119.941092 121.811464 
L 120.623519 121.859216 
L 121.306582 121.884851 
L 121.990322 121.888329 
L 122.674771 121.869611 
L 123.359969 121.828648 
L 124.045953 121.765399 
L 124.732764 121.679812 
L 125.420435 121.571838 
L 126.109007 121.44142 
L 126.79852 121.288502 
L 127.489008 121.11303 
L 128.180513 120.914935 
L 128.873075 120.694158 
L 129.56673 120.45063 
L 130.261519 120.184283 
L 130.957484 119.895043 
L 131.654662 119.582837 
L 132.353094 119.247588 
L 133.052821 118.889214 
L 133.753886 118.507633 
L 134.456327 118.102759 
L 135.160188 117.674503 
L 135.865508 117.222776 
L 136.57233 116.74748 
L 137.280698 116.248521 
L 137.990653 115.725799 
L 138.702242 115.179206 
L 139.415505 114.608641 
L 140.130485 114.013995 
L 140.847227 113.395153 
L 141.565777 112.752002 
L 142.286179 112.084423 
L 143.008481 111.39229 
L 143.732725 110.675485 
L 144.458961 109.933874 
L 145.187231 109.167333 
L 145.917586 108.37572 
L 146.650072 107.5589 
L 147.38474 106.716728 
L 148.121634 105.849063 
L 148.860806 104.955755 
L 149.602308 104.03665 
L 150.346184 103.091595 
" clip-path="url(#p2e9811d845)" style="fill: none; stroke: #1f77b4; stroke-width: 1.5"/>
    <path d="M 84.970305 71.354651 
L 85.672734 72.676188 
L 86.37382 73.973842 
L 87.073599 75.247702 
L 87.772109 76.497864 
L 88.469392 77.72442 
L 89.165479 78.927451 
L 89.860411 80.107048 
L 90.554225 81.26329 
L 91.24696 82.396263 
L 91.938648 83.506036 
L 92.629331 84.592693 
L 93.319041 85.656295 
L 94.007817 86.69692 
L 94.695695 87.714635 
L 95.38271 88.709502 
L 96.068902 89.681589 
L 96.754305 90.630954 
L 97.438951 91.557649 
L 98.12288 92.461736 
L 98.806126 93.343266 
L 99.488726 94.202289 
L 100.170716 95.038859 
L 100.852129 95.853014 
L 101.533004 96.644804 
L 102.213372 97.414266 
L 102.89327 98.161441 
L 103.572734 98.886366 
L 104.251802 99.589076 
L 104.930503 100.269601 
L 105.608876 100.927973 
L 106.286957 101.56422 
L 106.964778 102.178365 
L 107.642376 102.770432 
L 108.319788 103.340444 
L 108.997045 103.888416 
L 109.674184 104.414365 
L 110.351242 104.918306 
L 111.028251 105.400251 
L 111.705248 105.860207 
L 112.382267 106.298183 
L 113.059347 106.714184 
L 113.736518 107.108212 
L 114.413818 107.480267 
L 115.091285 107.830347 
L 115.768949 108.158448 
L 116.446849 108.464561 
L 117.125021 108.748681 
L 117.803499 109.010794 
L 118.482318 109.250887 
L 119.161519 109.468945 
L 119.841133 109.664949 
L 120.521197 109.838878 
L 121.201747 109.990709 
L 121.882822 110.120417 
L 122.564455 110.227975 
L 123.246685 110.313352 
L 123.929549 110.376517 
L 124.613081 110.417432 
L 125.297321 110.436063 
L 125.982307 110.43237 
L 126.668072 110.406309 
L 127.354657 110.357837 
L 128.042098 110.286905 
L 128.730437 110.193466 
L 129.419707 110.077467 
L 130.109948 109.938852 
L 130.801202 109.777565 
L 131.493502 109.593547 
L 132.18689 109.386734 
L 132.881408 109.157063 
L 133.57709 108.904465 
L 134.273979 108.62887 
L 134.972116 108.330205 
L 135.671538 108.008396 
L 136.372287 107.663363 
L 137.074405 107.295026 
L 137.777934 106.903299 
L 138.482911 106.488099 
L 139.189384 106.049333 
L 139.897389 105.586912 
L 140.606971 105.100738 
L 141.318173 104.590715 
L 142.031037 104.056741 
L 142.745611 103.49871 
L 143.461934 102.916516 
L 144.18005 102.310053 
L 144.900005 101.679202 
L 145.621844 101.02385 
L 146.345613 100.343878 
L 147.071359 99.639157 
L 147.799124 98.90957 
L 148.528959 98.154979 
L 149.260908 97.37526 
L 149.99502 96.570271 
L 150.731342 95.739876 
L 151.469927 94.883926 
L 152.210818 94.002281 
L 152.954066 93.094789 
L 153.699726 92.161295 
L 154.447842 91.201644 
" clip-path="url(#p2e9811d845)" style="fill: none; stroke: #1f77b4; stroke-width: 1.5"/>
    <path d="M 89.069137 62.385383 
L 89.767424 63.705851 
L 90.464448 65.002366 
L 91.160243 66.275016 
L 91.854848 67.523897 
L 92.548302 68.749103 
L 93.240638 69.950712 
L 93.931896 71.128816 
L 94.622112 72.283492 
L 95.311325 73.414828 
L 95.999568 74.522891 
L 96.68688 75.607765 
L 97.373295 76.669512 
L 98.05885 77.708208 
L 98.743581 78.723921 
L 99.427524 79.716712 
L 100.110717 80.686648 
L 100.793194 81.633788 
L 101.474988 82.558184 
L 102.156136 83.459896 
L 102.836675 84.338977 
L 103.516639 85.195475 
L 104.196067 86.029443 
L 104.874988 86.840921 
L 105.553442 87.629957 
L 106.231461 88.396588 
L 106.909081 89.140856 
L 107.586338 89.862795 
L 108.263268 90.562443 
L 108.939902 91.239827 
L 109.616278 91.89498 
L 110.292432 92.52793 
L 110.968395 93.138699 
L 111.644205 93.727311 
L 112.319897 94.293788 
L 112.995504 94.838146 
L 113.671061 95.360401 
L 114.346607 95.860569 
L 115.022172 96.338658 
L 115.697793 96.794679 
L 116.373505 97.228638 
L 117.049345 97.640542 
L 117.725344 98.030389 
L 118.401541 98.398182 
L 119.077971 98.743919 
L 119.754667 99.067593 
L 120.431666 99.369198 
L 121.109005 99.648725 
L 121.786716 99.906163 
L 122.464837 100.141496 
L 123.143406 100.35471 
L 123.822456 100.545786 
L 124.502022 100.714702 
L 125.182141 100.861436 
L 125.862853 100.985962 
L 126.544189 101.088251 
L 127.226188 101.168274 
L 127.908889 101.225998 
L 128.592325 101.261387 
L 129.276535 101.274405 
L 129.961557 101.265011 
L 130.647426 101.233162 
L 131.334181 101.178814 
L 132.02186 101.101919 
L 132.710503 101.002428 
L 133.400143 100.880287 
L 134.090822 100.735443 
L 134.78258 100.567837 
L 135.475452 100.377411 
L 136.169478 100.1641 
L 136.864701 99.927839 
L 137.561155 99.668562 
L 138.258883 99.386197 
L 138.957926 99.080671 
L 139.658321 98.751909 
L 140.360112 98.399831 
L 141.063337 98.024357 
L 141.768042 97.625401 
L 142.474263 97.202878 
L 143.182046 96.756696 
L 143.89143 96.286766 
L 144.602459 95.792989 
L 145.315175 95.275269 
L 146.029623 94.733503 
L 146.745848 94.167586 
L 147.463891 93.577411 
L 148.183795 92.96287 
L 148.905608 92.323846 
L 149.629373 91.660225 
L 150.355137 90.971888 
L 151.082947 90.258704 
L 151.812846 89.520556 
L 152.544886 88.757309 
L 153.279108 87.968835 
L 154.015563 87.154992 
L 154.7543 86.315644 
L 155.495369 85.450644 
L 156.238815 84.559849 
L 156.984691 83.643108 
L 157.733048 82.700264 
L 158.483933 81.731164 
" clip-path="url(#p2e9811d845)" style="fill: none; stroke: #1f77b4; stroke-width: 1.5"/>
    <path d="M 93.204332 55.778444 
L 93.897296 57.094629 
L 94.589078 58.386876 
L 95.279713 59.655273 
L 95.969238 60.899914 
L 96.657694 62.120892 
L 97.345111 63.318287 
L 98.031529 64.492187 
L 98.716984 65.642672 
L 99.401515 66.769826 
L 100.085152 67.873717 
L 100.767937 68.954428 
L 101.4499 70.012021 
L 102.13108 71.046571 
L 102.811513 72.058144 
L 103.491233 73.046803 
L 104.170277 74.012613 
L 104.84868 74.955633 
L 105.526474 75.875914 
L 106.203697 76.773515 
L 106.880383 77.648489 
L 107.556567 78.500885 
L 108.232287 79.330754 
L 108.907573 80.138135 
L 109.582464 80.923077 
L 110.256991 81.685616 
L 110.93119 82.425793 
L 111.605096 83.143643 
L 112.278746 83.839202 
L 112.95217 84.512498 
L 113.625405 85.163563 
L 114.298488 85.792424 
L 114.971449 86.399104 
L 115.644325 86.983625 
L 116.317153 87.54601 
L 116.989963 88.086275 
L 117.662791 88.604434 
L 118.335675 89.100505 
L 119.008646 89.574494 
L 119.681739 90.026412 
L 120.35499 90.456266 
L 121.028436 90.86406 
L 121.702108 91.249796 
L 122.376042 91.613472 
L 123.050277 91.955089 
L 123.724842 92.274638 
L 124.399775 92.572115 
L 125.075114 92.84751 
L 125.750889 93.10081 
L 126.427139 93.332001 
L 127.103901 93.541068 
L 127.781209 93.727992 
L 128.459096 93.892751 
L 129.137601 94.035322 
L 129.816762 94.155681 
L 130.496611 94.253797 
L 131.177186 94.329642 
L 131.858527 94.383182 
L 132.540665 94.414382 
L 133.223639 94.423204 
L 133.90749 94.409609 
L 134.592249 94.373554 
L 135.277957 94.314994 
L 135.964651 94.233882 
L 136.652371 94.130168 
L 137.341151 94.003799 
L 138.031031 93.854722 
L 138.722052 93.682877 
L 139.414248 93.488206 
L 140.107661 93.270645 
L 140.802332 93.03013 
L 141.498295 92.766593 
L 142.195594 92.479964 
L 142.894269 92.170169 
L 143.594357 91.837134 
L 144.295902 91.480778 
L 144.998943 91.101022 
L 145.703524 90.697781 
L 146.409682 90.270969 
L 147.117463 89.820494 
L 147.826905 89.346269 
L 148.538054 88.848193 
L 149.250951 88.326172 
L 149.965639 87.780103 
L 150.682166 87.20988 
L 151.400571 86.615398 
L 152.120898 85.99655 
L 152.843194 85.353217 
L 153.567503 84.685286 
L 154.293871 83.992639 
L 155.022347 83.275146 
L 155.752972 82.532691 
L 156.485797 81.765136 
L 157.220866 80.972358 
L 157.958229 80.154213 
L 158.697933 79.310565 
L 159.44003 78.441269 
L 160.184566 77.546182 
L 160.93159 76.625153 
L 161.681158 75.678027 
L 162.433314 74.704651 
" clip-path="url(#p2e9811d845)" style="fill: none; stroke: #1f77b4; stroke-width: 1.5"/>
    <path d="M 97.354078 51.530816 
L 98.040591 52.839577 
L 98.726007 54.124499 
L 99.410358 55.385668 
L 100.093683 56.623179 
L 100.77602 57.837122 
L 101.4574 59.027576 
L 102.137862 60.194628 
L 102.817442 61.338357 
L 103.496176 62.458847 
L 104.174096 63.556164 
L 104.851242 64.630391 
L 105.527644 65.681588 
L 106.20334 66.70983 
L 106.878365 67.715182 
L 107.552753 68.697705 
L 108.226542 69.657466 
L 108.899764 70.59452 
L 109.572452 71.50892 
L 110.244642 72.400723 
L 110.916369 73.269982 
L 111.587668 74.116743 
L 112.258574 74.941059 
L 112.929118 75.742968 
L 113.599338 76.522518 
L 114.269265 77.279744 
L 114.938935 78.014686 
L 115.608382 78.72738 
L 116.277642 79.417861 
L 116.946746 80.086157 
L 117.615729 80.732298 
L 118.284628 81.356312 
L 118.953473 81.958221 
L 119.622301 82.538048 
L 120.291146 83.095813 
L 120.960041 83.631533 
L 121.62902 84.145223 
L 122.298121 84.636898 
L 122.967373 85.106567 
L 123.636814 85.554238 
L 124.306476 85.979919 
L 124.976398 86.383615 
L 125.646609 86.765324 
L 126.317146 87.125049 
L 126.988047 87.462786 
L 127.65934 87.77853 
L 128.331065 88.072274 
L 129.003257 88.344009 
L 129.675947 88.593722 
L 130.349174 88.8214 
L 131.022973 89.027027 
L 131.697379 89.210584 
L 132.372425 89.372048 
L 133.048149 89.511399 
L 133.724588 89.62861 
L 134.401775 89.723652 
L 135.079748 89.796496 
L 135.758545 89.84711 
L 136.438198 89.875458 
L 137.118746 89.881503 
L 137.800228 89.865205 
L 138.482677 89.826522 
L 139.166131 89.765409 
L 139.850629 89.68182 
L 140.53621 89.575704 
L 141.222908 89.447011 
L 141.910763 89.295685 
L 142.599814 89.121669 
L 143.290097 88.924905 
L 143.981652 88.705329 
L 144.674521 88.462878 
L 145.368737 88.197485 
L 146.064344 87.909079 
L 146.761382 87.597588 
L 147.459889 87.262937 
L 148.159905 86.905049 
L 148.861472 86.523842 
L 149.564633 86.119234 
L 150.269424 85.691138 
L 150.975893 85.239466 
L 151.684076 84.764128 
L 152.394017 84.265027 
L 153.10576 83.742067 
L 153.819348 83.195148 
L 154.534826 82.624165 
L 155.252235 82.029013 
L 155.971617 81.409586 
L 156.69302 80.765767 
L 157.416488 80.097444 
L 158.142067 79.4045 
L 158.869804 78.686805 
L 159.599741 77.944246 
L 160.33193 77.176685 
L 161.066413 76.384001 
L 161.80324 75.566051 
L 162.54246 74.722701 
L 163.284122 73.853806 
L 164.028272 72.959227 
L 164.774961 72.038812 
L 165.524243 71.092408 
L 166.276162 70.119865 
" clip-path="url(#p2e9811d845)" style="fill: none; stroke: #1f77b4; stroke-width: 1.5"/>
    <path d="M 101.496937 49.615521 
L 102.175936 50.913831 
L 102.853924 52.188482 
L 103.530932 53.439558 
L 104.206997 54.667152 
L 104.882157 55.871354 
L 105.556443 57.052239 
L 106.229892 58.209896 
L 106.902539 59.3444 
L 107.574421 60.455834 
L 108.245568 61.544265 
L 108.91602 62.609773 
L 109.585806 63.652416 
L 110.254964 64.67227 
L 110.923526 65.669398 
L 111.591529 66.64386 
L 112.259007 67.595721 
L 112.925992 68.525036 
L 113.592518 69.431857 
L 114.258619 70.31624 
L 114.92433 71.178237 
L 115.589684 72.017894 
L 116.254718 72.835262 
L 116.919461 73.63038 
L 117.58395 74.403293 
L 118.248215 75.154036 
L 118.912293 75.88265 
L 119.576217 76.589169 
L 120.240021 77.273628 
L 120.903737 77.936053 
L 121.567399 78.576475 
L 122.231044 79.194921 
L 122.8947 79.791412 
L 123.558404 80.365972 
L 124.222191 80.91862 
L 124.886091 81.449372 
L 125.55014 81.958244 
L 126.214374 82.44525 
L 126.878822 82.910397 
L 127.54352 83.353697 
L 128.208502 83.775154 
L 128.873805 84.174773 
L 129.539458 84.552556 
L 130.205498 84.908501 
L 130.87196 85.242607 
L 131.538876 85.554867 
L 132.206281 85.845276 
L 132.874212 86.113824 
L 133.542699 86.360499 
L 134.211781 86.585286 
L 134.881492 86.788172 
L 135.551867 86.969135 
L 136.222938 87.128156 
L 136.894743 87.265212 
L 137.567319 87.380278 
L 138.240698 87.473326 
L 138.914916 87.544326 
L 139.590013 87.593247 
L 140.266021 87.620053 
L 140.942976 87.624707 
L 141.620919 87.607171 
L 142.299881 87.567404 
L 142.979901 87.50536 
L 143.661016 87.420993 
L 144.343265 87.314256 
L 145.026683 87.185096 
L 145.711307 87.03346 
L 146.397179 86.859292 
L 147.084332 86.662533 
L 147.772807 86.443122 
L 148.462644 86.200995 
L 149.153878 85.936087 
L 149.84655 85.648328 
L 150.540702 85.337647 
L 151.236369 85.003971 
L 151.933593 84.647222 
L 152.632415 84.267321 
L 153.332878 83.864186 
L 154.035017 83.437734 
L 154.738878 82.987874 
L 155.4445 82.514521 
L 156.151925 82.017578 
L 156.861196 81.49695 
L 157.572355 80.95254 
L 158.285449 80.384243 
L 159.000517 79.791957 
L 159.717602 79.175576 
L 160.43675 78.534987 
L 161.158005 77.870078 
L 161.881413 77.180734 
L 162.607021 76.466828 
L 163.33487 75.728248 
L 164.065012 74.964858 
L 164.797488 74.176539 
L 165.532349 73.363151 
L 166.269641 72.524563 
L 167.009415 71.660629 
L 167.751716 70.771215 
L 168.496595 69.856171 
L 169.244104 68.915346 
L 169.994289 67.948592 
" clip-path="url(#p2e9811d845)" style="fill: none; stroke: #1f77b4; stroke-width: 1.5"/>
    <path d="M 105.612197 49.982887 
L 106.282693 51.267868 
L 106.952263 52.529446 
L 107.620938 53.767705 
L 108.288754 54.982734 
L 108.955748 56.174621 
L 109.621951 57.343441 
L 110.287398 58.48928 
L 110.952124 59.612212 
L 111.616164 60.71232 
L 112.279549 61.789666 
L 112.942316 62.84433 
L 113.604496 63.87637 
L 114.266123 64.885859 
L 114.927231 65.87286 
L 115.587854 66.83743 
L 116.248027 67.779635 
L 116.907782 68.699527 
L 117.567149 69.597158 
L 118.226164 70.472583 
L 118.88486 71.325851 
L 119.54327 72.157009 
L 120.20143 72.966107 
L 120.859368 73.753182 
L 121.517121 74.518278 
L 122.174719 75.261432 
L 122.832196 75.982681 
L 123.489585 76.68206 
L 124.146921 77.359602 
L 124.804234 78.015334 
L 125.461558 78.649286 
L 126.118929 79.261484 
L 126.776375 79.851949 
L 127.433931 80.420704 
L 128.091632 80.967768 
L 128.749508 81.493156 
L 129.407594 81.996885 
L 130.065924 82.478967 
L 130.724529 82.939411 
L 131.383443 83.378226 
L 132.0427 83.795419 
L 132.702335 84.190993 
L 133.362378 84.564949 
L 134.022864 84.917288 
L 134.683829 85.248007 
L 135.345303 85.5571 
L 136.007321 85.844561 
L 136.66992 86.110381 
L 137.33313 86.354548 
L 137.996986 86.577048 
L 138.661526 86.777866 
L 139.326781 86.956984 
L 139.992784 87.11438 
L 140.659573 87.250034 
L 141.327183 87.36392 
L 141.995646 87.456011 
L 142.664998 87.526277 
L 143.335278 87.574688 
L 144.006517 87.60121 
L 144.678752 87.605806 
L 145.352022 87.588438 
L 146.026357 87.549065 
L 146.701798 87.487645 
L 147.378379 87.404131 
L 148.05614 87.298476 
L 148.735114 87.17063 
L 149.415339 87.020541 
L 150.096856 86.848152 
L 150.779697 86.653407 
L 151.463902 86.436247 
L 152.149512 86.196607 
L 152.836561 85.934425 
L 153.52509 85.649633 
L 154.215138 85.342159 
L 154.906743 85.011934 
L 155.599944 84.65888 
L 156.294781 84.282921 
L 156.991298 83.883975 
L 157.68953 83.461962 
L 158.389522 83.016793 
L 159.09131 82.548384 
L 159.794939 82.05664 
L 160.50045 81.54147 
L 161.207885 81.002776 
L 161.917289 80.440457 
L 162.628702 79.854413 
L 163.342165 79.24454 
L 164.057725 78.610727 
L 164.775425 77.952866 
L 165.49531 77.270843 
L 166.217427 76.564534 
L 166.941816 75.833828 
L 167.668528 75.078595 
L 168.397605 74.298717 
L 169.129095 73.494056 
L 169.863046 72.664485 
L 170.599508 71.809862 
L 171.338523 70.930053 
L 172.080144 70.024914 
L 172.824422 69.094297 
L 173.571401 68.138056 
" clip-path="url(#p2e9811d845)" style="fill: none; stroke: #1f77b4; stroke-width: 1.5"/>
    <path d="M 109.680186 52.562323 
L 110.341268 53.831278 
L 111.00151 55.077158 
L 111.660941 56.300045 
L 112.319597 57.500025 
L 112.977513 58.677186 
L 113.634719 59.8316 
L 114.29125 60.963351 
L 114.947139 62.072511 
L 115.602422 63.159161 
L 116.257128 64.223362 
L 116.911292 65.265192 
L 117.564945 66.284707 
L 118.218121 67.281979 
L 118.870853 68.257068 
L 119.523173 69.210032 
L 120.175116 70.140933 
L 120.826712 71.049824 
L 121.477992 71.936754 
L 122.12899 72.801777 
L 122.779739 73.644942 
L 123.43027 74.466294 
L 124.080619 75.265882 
L 124.730813 76.043742 
L 125.380889 76.799918 
L 126.030875 77.534444 
L 126.680805 78.247358 
L 127.330711 78.938693 
L 127.980629 79.608482 
L 128.630585 80.256752 
L 129.280614 80.88353 
L 129.93075 81.488844 
L 130.581023 82.072714 
L 131.231465 82.63516 
L 131.882112 83.176204 
L 132.532991 83.69586 
L 133.184138 84.194142 
L 133.835587 84.671064 
L 134.487365 85.126636 
L 135.139509 85.560864 
L 135.792051 85.973756 
L 136.445024 86.365317 
L 137.098459 86.735545 
L 137.75239 87.084442 
L 138.406852 87.412006 
L 139.061874 87.718231 
L 139.717492 88.003109 
L 140.37374 88.266635 
L 141.030648 88.508794 
L 141.688252 88.729574 
L 142.346588 88.928962 
L 143.005686 89.106937 
L 143.665579 89.263481 
L 144.326304 89.398572 
L 144.987896 89.512185 
L 145.650385 89.604296 
L 146.313809 89.674874 
L 146.978203 89.72389 
L 147.6436 89.75131 
L 148.310035 89.7571 
L 148.977546 89.741221 
L 149.646164 89.703635 
L 150.315927 89.6443 
L 150.986872 89.56317 
L 151.659035 89.4602 
L 152.332449 89.335342 
L 153.007153 89.188542 
L 153.683185 89.019749 
L 154.360578 88.828906 
L 155.039371 88.615955 
L 155.719605 88.380835 
L 156.401312 88.123484 
L 157.084532 87.843835 
L 157.769306 87.54182 
L 158.455669 87.21737 
L 159.14366 86.87041 
L 159.833319 86.500867 
L 160.524688 86.108659 
L 161.217803 85.69371 
L 161.912706 85.255932 
L 162.609435 84.795243 
L 163.308033 84.311553 
L 164.00854 83.80477 
L 164.710998 83.274802 
L 165.41545 82.721548 
L 166.121937 82.144912 
L 166.8305 81.544793 
L 167.541182 80.921082 
L 168.254029 80.273674 
L 168.969082 79.602458 
L 169.686389 78.907314 
L 170.40599 78.188135 
L 171.127934 77.444793 
L 171.852262 76.677172 
L 172.579023 75.885141 
L 173.308262 75.068573 
L 174.04003 74.227333 
L 174.774368 73.361289 
L 175.511327 72.4703 
L 176.250958 71.554224 
L 176.993305 70.612918 
" clip-path="url(#p2e9811d845)" style="fill: none; stroke: #1f77b4; stroke-width: 1.5"/>
    <path d="M 113.682539 57.264518 
L 114.333382 58.514955 
L 114.983469 59.742712 
L 115.632828 60.947867 
L 116.281494 62.130506 
L 116.929502 63.290712 
L 117.576879 64.428557 
L 118.223661 65.544122 
L 118.869879 66.637477 
L 119.515567 67.7087 
L 120.160754 68.757851 
L 120.805476 69.785006 
L 121.44976 70.79022 
L 122.093641 71.773561 
L 122.737149 72.73509 
L 123.380317 73.674861 
L 124.023179 74.592936 
L 124.665764 75.489365 
L 125.308101 76.364197 
L 125.950224 77.217484 
L 126.592165 78.049275 
L 127.233955 78.859611 
L 127.875627 79.648542 
L 128.517209 80.416102 
L 129.158736 81.162334 
L 129.800237 81.887272 
L 130.441743 82.590952 
L 131.083286 83.273406 
L 131.724901 83.934668 
L 132.366614 84.574762 
L 133.008458 85.193715 
L 133.650468 85.791555 
L 134.292671 86.368301 
L 134.935099 86.923971 
L 135.577788 87.458591 
L 136.220764 87.972171 
L 136.864061 88.464724 
L 137.507713 88.936267 
L 138.151747 89.386806 
L 138.796198 89.816352 
L 139.441097 90.224908 
L 140.086478 90.61248 
L 140.73237 90.979068 
L 141.378806 91.324673 
L 142.025821 91.649294 
L 142.673443 91.952924 
L 143.321707 92.235557 
L 143.970646 92.497185 
L 144.620291 92.737796 
L 145.270675 92.95738 
L 145.921833 93.155921 
L 146.573797 93.333402 
L 147.226598 93.489803 
L 147.880271 93.625104 
L 148.534851 93.739282 
L 149.190369 93.832311 
L 149.846859 93.904162 
L 150.504358 93.954808 
L 151.162896 93.984217 
L 151.822509 93.992354 
L 152.483234 93.979183 
L 153.145102 93.944666 
L 153.808148 93.88876 
L 154.472409 93.811426 
L 155.137922 93.712618 
L 155.804718 93.592288 
L 156.472834 93.450385 
L 157.14231 93.286859 
L 157.813176 93.101658 
L 158.485472 92.89472 
L 159.159236 92.665991 
L 159.834501 92.415409 
L 160.511306 92.142909 
L 161.18969 91.848426 
L 161.869688 91.531892 
L 162.55134 91.193237 
L 163.234683 90.832386 
L 163.919759 90.449264 
L 164.606602 90.043794 
L 165.295255 89.615893 
L 165.985755 89.165482 
L 166.678142 88.692471 
L 167.372458 88.196774 
L 168.068743 87.6783 
L 168.767039 87.136952 
L 169.467387 86.572637 
L 170.169825 85.985258 
L 170.874399 85.374708 
L 171.58115 84.740886 
L 172.29012 84.083686 
L 173.001357 83.40299 
L 173.714899 82.698694 
L 174.430794 81.970676 
L 175.149083 81.218824 
L 175.869813 80.443009 
L 176.593029 79.643109 
L 177.31878 78.818994 
L 178.047108 77.970536 
L 178.778062 77.097599 
L 179.511691 76.200045 
L 180.248039 75.277736 
" clip-path="url(#p2e9811d845)" style="fill: none; stroke: #1f77b4; stroke-width: 1.5"/>
    <path d="M 117.602423 63.983939 
L 118.24229 65.213593 
L 118.881483 66.42102 
L 119.520029 67.606298 
L 120.157962 68.769509 
L 120.795316 69.910735 
L 121.432117 71.030043 
L 122.0684 72.127512 
L 122.704194 73.203211 
L 123.339534 74.257215 
L 123.974447 75.289583 
L 124.608967 76.300387 
L 125.24312 77.289681 
L 125.876942 78.257531 
L 126.51046 79.203996 
L 127.143708 80.129129 
L 127.776716 81.032989 
L 128.409514 81.915627 
L 129.042131 82.777085 
L 129.674599 83.61742 
L 130.306949 84.436674 
L 130.93921 85.234892 
L 131.571416 86.012118 
L 132.203594 86.768387 
L 132.835776 87.503741 
L 133.467991 88.218212 
L 134.100271 88.911835 
L 134.732646 89.584642 
L 135.365148 90.236667 
L 135.997804 90.867931 
L 136.630647 91.478462 
L 137.26371 92.068285 
L 137.897018 92.637421 
L 138.530605 93.185889 
L 139.164503 93.713707 
L 139.798739 94.220891 
L 140.433346 94.707455 
L 141.068356 95.173412 
L 141.703798 95.618769 
L 142.339702 96.043536 
L 142.976102 96.447717 
L 143.613029 96.831319 
L 144.250512 97.194341 
L 144.888582 97.536783 
L 145.527275 97.858646 
L 146.166616 98.159922 
L 146.806641 98.440607 
L 147.447382 98.700692 
L 148.088868 98.940167 
L 148.731132 99.159022 
L 149.374209 99.357241 
L 150.018128 99.534807 
L 150.66292 99.691702 
L 151.30862 99.827908 
L 151.955262 99.943402 
L 152.602875 100.038157 
L 153.251494 100.112149 
L 153.901154 100.165349 
L 154.551885 100.197728 
L 155.203721 100.20925 
L 155.856698 100.199884 
L 156.510847 100.169591 
L 157.166204 100.11833 
L 157.822802 100.046063 
L 158.480677 99.952747 
L 159.139862 99.838334 
L 159.800392 99.702779 
L 160.462304 99.546031 
L 161.125631 99.368036 
L 161.790409 99.168742 
L 162.456676 98.948092 
L 163.124465 98.706027 
L 163.793813 98.442487 
L 164.46476 98.157405 
L 165.137338 97.85072 
L 165.811586 97.522362 
L 166.487542 97.17226 
L 167.165245 96.800342 
L 167.84473 96.40653 
L 168.526038 95.99075 
L 169.209205 95.552921 
L 169.894272 95.09296 
L 170.581277 94.610782 
L 171.27026 94.106301 
L 171.961264 93.579421 
L 172.654327 93.030055 
L 173.349487 92.458108 
L 174.046788 91.863478 
L 174.74627 91.246068 
L 175.447977 90.605775 
L 176.151952 89.942486 
L 176.858234 89.2561 
L 177.56687 88.546501 
L 178.2779 87.813579 
L 178.991369 87.057212 
L 179.707322 86.277282 
L 180.425806 85.473663 
L 181.146862 84.646234 
L 181.870538 83.794861 
L 182.596883 82.919414 
L 183.325939 82.019758 
" clip-path="url(#p2e9811d845)" style="fill: none; stroke: #1f77b4; stroke-width: 1.5"/>
   </g>
  </g>
 </g>
 <defs>
  <clipPath id="p2e9811d845">
   <rect x="59.85" y="21.6" width="138.6" height="138.6"/>
  </clipPath>
 </defs>
</svg>
